<mxfile host="65bd71144e">
    <diagram id="tR5OrQRVmXnERsVhPPt2" name="Page-1">
        <mxGraphModel dx="662" dy="346" grid="1" gridSize="10" guides="1" tooltips="1" connect="1" arrows="1" fold="1" page="1" pageScale="1" pageWidth="850" pageHeight="1100" math="0" shadow="0">
            <root>
                <mxCell id="0"/>
                <mxCell id="1" parent="0"/>
                <mxCell id="2" value="http://ics2o.mths.ca" style="swimlane;whiteSpace=wrap;html=1;" parent="1" vertex="1">
                    <mxGeometry x="60" y="370" width="1300" height="920" as="geometry"/>
                </mxCell>
                <mxCell id="3" value="&lt;font style=&quot;font-size: 20px;&quot;&gt;Candy Shop, in JS&lt;/font&gt;" style="text;html=1;align=center;verticalAlign=middle;resizable=0;points=[];autosize=1;strokeColor=none;fillColor=none;" parent="2" vertex="1">
                    <mxGeometry x="540" y="50" width="190" height="40" as="geometry"/>
                </mxCell>
                <mxCell id="4" value="&lt;font style=&quot;font-size: 20px;&quot;&gt;Please select the size of the bag for your candies. YAY!&lt;/font&gt;" style="text;html=1;align=center;verticalAlign=middle;resizable=0;points=[];autosize=1;strokeColor=none;fillColor=none;" parent="2" vertex="1">
                    <mxGeometry x="40" y="100" width="510" height="40" as="geometry"/>
                </mxCell>
                <mxCell id="9" value="CANDY" style="rounded=1;whiteSpace=wrap;html=1;" parent="2" vertex="1">
                    <mxGeometry x="60" y="590" width="130" height="50" as="geometry"/>
                </mxCell>
                <mxCell id="11" value="" style="ellipse;whiteSpace=wrap;html=1;" parent="2" vertex="1">
                    <mxGeometry x="60" y="160" width="20" height="20" as="geometry"/>
                </mxCell>
                <mxCell id="12" value="Single-size bag -&amp;nbsp; $5 (10 pieces of candy)" style="rounded=1;whiteSpace=wrap;html=1;" parent="2" vertex="1">
                    <mxGeometry x="100" y="140" width="260" height="60" as="geometry"/>
                </mxCell>
                <mxCell id="13" value="Family-size bag - $15 (20 pieces of bag)" style="rounded=1;whiteSpace=wrap;html=1;" parent="2" vertex="1">
                    <mxGeometry x="100" y="220" width="260" height="60" as="geometry"/>
                </mxCell>
                <mxCell id="14" value="" style="ellipse;whiteSpace=wrap;html=1;" parent="2" vertex="1">
                    <mxGeometry x="60" y="240" width="20" height="20" as="geometry"/>
                </mxCell>
                <mxCell id="15" value="&lt;font style=&quot;font-size: 20px;&quot;&gt;Select your candy&lt;/font&gt;" style="text;html=1;align=center;verticalAlign=middle;resizable=0;points=[];autosize=1;strokeColor=none;fillColor=none;" parent="2" vertex="1">
                    <mxGeometry x="70" y="300" width="180" height="40" as="geometry"/>
                </mxCell>
                <mxCell id="28" value="" style="shape=image;verticalLabelPosition=bottom;labelBackgroundColor=default;verticalAlign=top;aspect=fixed;imageAspect=0;image=data:image/jpeg,/9j/4AAQSkZJRgABAQAAAQABAAD/2wCEAAUFBQUFBQUGBgUICAcICAsKCQkKCxEMDQwNDBEaEBMQEBMQGhcbFhUWGxcpIBwcICkvJyUnLzkzMzlHREddXX0BBQUFBQUFBQYGBQgIBwgICwoJCQoLEQwNDA0MERoQExAQExAaFxsWFRYbFykgHBwgKS8nJScvOTMzOUdER11dff/CABEIAWgBaAMBIgACEQEDEQH/xAA3AAACAgMBAQEAAAAAAAAAAAAABQYHAQQIAwIJAQACAgMBAQAAAAAAAAAAAAAABQQGAgMHAQj/2gAMAwEAAhADEAAAAOsAAw8RvAAAR5xkMPEbwAAEecZDDxG8AABHnGQw8RvAAAR5zgMPEbwAAEecZDDxG8AABHnGQw8RvAAAR5xkAAMDwBE9EQPRHgDLwBE9EQPRGBjLwBE9EQPfKjebot+7txSPQUusK45CKaqbmxYmzfVK9VlPswLp83qqZcM9SSua2EJjyo+eXgeonoiB6I8AZeAInoiB6I8AZeAIx4AAp8yIfSV00m6SXZo66HiKShXbxW/gdUeEy/XxAIPfG+rxi1qmmm7mU8SQebqLnyTAuqeZq19C2FYteab2n1DadW3T7ZJt6aO3zdF7IHSR5siMasam7Za9lXZSepbtW8vbn1jTO+E/KvVTjnGdCIwyVM6D2OEO44u/cRvOcPFN6HH08rNq6gFzG20IAyxR17Yenrl8lyWPLeQfQ77pnmLsi684iuYK/vPL/aMyeOyoujXtox/a5mehVU82K5E7TbsLOycUzuJrFP8AiTsfkjHGEdG0DakfqU83fdHUUuY+pxa7D60/Y9dTH9kWhEJVX+cQhye8yXQfUVAtINruHnDv7n95VudO4YJbGpTrcbdn8kK5be8+c5rz6yWnM4nLes8dwZGEHA8AjehM0XmxsKtT3VDZXoQ5zWIyvktm72lW+3hHvG/pZ9IXXpmw22Ij94VqC3fTVj0xw+o60adaU2hpFqw7P6C7F0KjkVc3sdFXXrV2wjym8WsO4cxWQ8SqkUqKf2h053q8021X+ln3cJPGycT+PDj+2VPQLx+VmnPqUHmcrxp3GXhNTIx4AAAI3iIPr4+sBRlpfNeOPIv7yDa8uURkLiKyKa1dsdHWhSMpfGfIz/Vk33yjKsqDncO7dQG/pE+xKb9C/n1NO1KPjMqPTdNSOqMqLtSsLGY2H3U67SYhZoWFXap+hbEM6a1ymlU6sh10jmqFX1TsDqcimdETrbP7NY6O7bvnd6B7gAAjMgfL1G7DX1uJFizrHbnN96t29HT1Da9YMENiovWK7qyulsdhsPp1ny5yIaF7ae4plVvm1uoSW2bXPcfG7/m/053VRFL/ABDQdK6fODTn8zp2lZm66lWaa1Ol3uDXkOzrhbSlehX9c1RFYS9DCtxF1Ceo/m7/AHRTd5+VrTecTEC28zRZMhgyBgeAInX2iDiGzr6WQ+mkqeaMvnOjswGqVrq4qspGdYWaw0saI0yw9itDTrlMJ3ZGzg1xYNiPozKLbUn95KCJ+c1+PcIjG7Lzju53gfVCCFZl8vpjw2xbZhcaDOv28pF9vkLyppDFrvzp3vGVyrx6FprStFbvMp6XSk7bLwaLUY8AAAEbxEH1gWY57tMaaCvdD9ILNoYotkztisbnsVXXj3MlAhw/DxB7uANf38oyeydREcaWUg9Y0Y75yxrXb2RJ7p6rnauRYfHmSEfAIfmQB7BuculOdl93tev4x1JE2Sjk/uPkTJBL9ul+ikTS4AOi8kAARmQPl6jZh7UzsQCs3TR9/WawH2lAOlarf1WG3PW1i4TvaCTaK5x/LPsYTPE9gNfPueHhjYA8D3A8D3A18+4Hge4HhjYD32mcTkW5VGOc+kKmiWexrZir5tz3beRrckxGvrCprjvRZM5aMGQMDwBFv7yIOe1czg9L7BYU9ij99S5WmrmcyEOPfY36/pUFNPvH9jjYxTKRsApG2qe6Y2DxSNgFI3oz2bbhWtonngNjyGpGwCkbAKdORR7dA5enF3pt/W3cs5xtnbVvemOpOfZe6Zsed7f5Gxs8wdp509A34CB+hPKMjM2hFD6tZtz829CWSoKII/j9NhzHT3IW4zpm34tOS2zz4oKUYprT+6AkJlb1N6MW9ZdOfMcg+KG2yBzzzRnj/raq83clotO8zsvVXzT/AN66dbxytJSd0GUtO/Fsuj0hj2+t+c2gETkWm8+d7hW+kk26zuNko/PXqbmTs+o9SbDovvFkZk2Y/PrTXxVrXv1zMo4vtOtK4X7ee3WlqqZ7KxaKtpvbE/J82v34xs/MW70me+VLW/UGfNPM6/qg9kc+Qfrvnb1jt35AJ/igidDdS/Zly1a9m4M+ddTpY93Uej6L5+Jcdta0fLxcR6Qx7dUVTdN677dv+Wqh0SXdp/FQOU3NvZlA3rhYXxkcc5wPAKPp3tJCntyCsru1pSrmb3sOvKt0Mm1d/eqP0Fs1nOXHO2YtjoTQhRjumpCgJqQoCa+ERAm2IUBNSFATUhQE1IUBNfOHATUi73ONtrFlZeb7h3veGZudKzyF4Z7dBX2/ynL/AHhltv6VqjwzjAeXh6o2K7H3Pn90/hscwF/YFSsNQ1de1WJLzJLmpm57ul+oDZONyqAk+Md0BJ8BAszSLYyNQ0jCbumkBuml7Hnv8yB9sXwEnx7rgPxYIEMmvz9bIkN536I50X3W1LR5im+1Fszj2hO2O7q2VTPHag6bhM23VgAYpo7ApTC+VWWWMYXu1uQ/pzdL/wCyt5S8yQtplzN03CWPkKtrlSw7O/vMpA3qbvxSIF3elGyTLVbnrFHkhH7JnPueRD1lmcdyZv8AGvnH29dbH8d8m+aY8I7y7Skjz27s0gBZ3OUliy6yXvCK1uBAiiHTlKdTW+r6+wDqqIsmQwZA8q+uEVSqPsSWRtdv56aK5VQ70onVa7sGU3sCp3GcT2g9s+Fpj0jrdDQlG2rDetvyyKdis7r61WCU2FQ3g696y9OVpFrT9FnP/n7p6AV8/mvKwa5ms/T02Kq+rqoKFSKW9tGo9R55lNuLLJ0HbsdHIeTUGq646ZoN9cp50ZxV0T0Pm1oCPF7qhl4AjHgAAAgfow5xueq51yy9NEfxDIkic+qZj7jELEU+fucQnKVctluFMrje7RXHzmz+0P6SSXQu2TKf8p9EhmjsGHS5JzG7bSie9X+FMXFf5277BqGTIICuvbu5d6X599EzRFpwrsKzEugu9z2wSOJS05zD5V6ApO0utv73wY6dyF6AAACMyB8vUbwK+rDoikqTaHVevJDSn8My3ZQpW1H51UjiHLFyjeSz3E5UaFpQ1o48ZDfnuyttbTaV2kUc6gOVyjmJRM6bDu5/yxab3jfhlZs865V5SlVWjNrVHSlU6aT6OuyhugYBUHtd+2sW+99DfdayjnnK6wtOpOsuxwnIF/o6LJkMGQMDwBFC7Rq9az5yu+Ft6Z1Nkh6XijPnteu4AspD63vmsM7cZ/6wPE/CRrEFj2H2cp3Xhc6TpfEm0PZFT6V06XrSEE++qrAi9T9OFnUcj7nVkVXLKHtjU099msDmXrfPuPK9krq85HZtOIzaE53DRtSP9LWOtxq2RFe6C9gMiqXQ0Zz7lLrpK98x4WelgACF8iCPv/rHmT0D3GKwK50dcnxxkxw/gtuIu3vzyidU6WpqHeWfS+v57TNy7Pnp6BISCN4iD6wYB6ABSN3URk/59j3SHOan6Jvnp3hjufzi4jeImvP/ACz649HoHgI3iIPrBgHX2AAAIzIHy9RvAAARZMh8vUbwAAEdDXznSz4LmfXUhWXxU2BzzFFkyefL1G8AABFkyHzEJg8JX58rv0A1V3VqXu0zL5h8vUbzcuAARZMh8vUbwAAEWTIYMgAAYeAAACPIBh4AAAI8gGHgAAAjyAYeAAACPIBh4AAAI8gGHgAAAjyAYeAAACPIAAB//8QANBAAAQQBBAECBAYCAQQDAAAAAwECBAUABhESFBMhMRAWICIVIzAyM0EkNUBCUFFSYGFx/9oACAEBAAEIAf8A4Lsv/ZnPY3939J8bLUMOAqjafUVpI34nLPP9yDtLaM5UbC1hLGqNmxJ0SwD5Y3/N2+nU94+tayLGTyySor4AbahC2RgiDMMZGaj1E4b3wYYmq7Aw3O92wxpkqtEVvLDwXM9UjypVeYJ49TZhto3lZxXOC/8ACkzY0NqOO25hu9hHDIbyF8bC2r6tiOli1ACaqNhq2xIio6c/Ulf9yVWopxieCVHngM7guJmrUf8AjZ+QSqNzXJJ1Mc8NQYa2fTaQiFwRTPdutapU+57Htc1FbviOx23J7Vso6MQTkjzpdepCxTS5kr1OrPGiPyJe3UT1j1OugFc0NojkeiOb8Dyokb0OMojMR4vgme3uqfTNlMhRTyH9g0w7pB4HX6zckSlhTPNHEVhwjKzLixnM/wAarXSN7Ie40h+lrcKZHtLaneg1qruFbtUS2lZ03oUcTxz4zXuZaErJvTl/+M1FSfiomkEassAP4vptKTphRvl6+kItjDhNiJ6rkdvATEyMMqMXf1RdlxqeQpXLJ/Oa9VOuy8ciacLYVo5kKvtJ1NIeNXVlHdx2SUs4D66YaITTWoyU5WRZXpsmagtHVsNvin1tX+FPPlbayamUwwQGZJAEw8v9QnQr4UAIVJ974MubBXccaQOUAZh/HVPL8FkK2PJ2RMScqJ6Fkc98oOSVEHlJKo2I1kYQIovIsi+AHHaqVF9H6ngSm+GVYQAj3nVVLaCvq4gzUZXCmniv1CBrnx1WmkPRvgJnFq4n9Zq1VXUVjkL92yDaOCFiuD55HjRp3AiMd5nyY3BrmEM4myYYvEbtnJzeuUeoFq16xNR1wbOuWcDSMtUkFi5rACLHgysVEciouh7V0mGWvLrsD3AhSEU7lajc9Xqm1YB0auhBeV3jCZ6C3ePm6Ht6ZGhxljtXKjZrpgk+MgDJIChfNgmqjKM3kDtvlRUybiS3iNjRMYxrirOtOGSI0meXgz8Oq60amkMt2zSqCu6azeUWfHruhI6BqcB6e+NDfGe9mp031CX7oTUVqijIRsvVnqo4FPNt5naNK5mbmsxq27cXKXbuI5w5Pa3IsNfDVEkNXijV3Vm3q3i9feX9g1RXuT2SqgjnULo8jkWspZEVNM0smKRZcnV5mpEiR8jQVkwLOQmmJSxNQV78kRxSgvCWVoTkRVi1OlY0B7TmxycmuTLCK6omHikjG2xliRjOKU0d4YyvJ9BRiK1WkTT9Oj+eDGwTUawjuDHuzT8Dx+SUWxsxV49sfGkWW8ywSPTbrIEK25cYNnYSnFhDEawlsfLoLJLhnWnQjsdK/E7dvCUPhGRmQBDksIZgQtigGFHbZrqGhokUrIy8QHclfM47JkEiSKB3FU3RUxWq1VRSmYNN1mS+a74FhJZmiGAYxAAwZnNaErnSV1EICSq/jZWsrZYtaOBVnjLWqveqF+JCiC1FKkoDvZHtd7WNXDtBeOR8lINfyq/TkSG9CPTbb9CQn5BsjyOvFIqV8J1kdx5E2xAe6ZDch7IjE68yACTMTyzZw3uknHKriRPwOAuo18r48dunqxIrebtQz2tESMLS7X/nEe+S5VVcCRSlRuTbZss8hcJG8PYG1rlb7abvRwZJQSj2KwDujmkWDCtyQcy+zlevq6mqkg+N8rvFixJZHpKRl+WrkRJp9LTj18n5hqns3y11MMgiAh0gOxcVo8XCO8YyPxl4aTLIeVCuwfaiglgILkgZ41P4H7fpOTk1UwRZDLyRHJPOykpyuHpqMJGyrSVMmzbVj5ZSUt0cYvJFHT0PKTIqQGnT3W0wblnSpFg9b0xvyYQ6pwhKaXGjogGCYcSsy0P0ap+L6YhBRKzzmutGSoznmryDeJysLFnx5IUh2EmqmRPvE18pWc0h14iFokye7yTNZbOCkyTKho8ZrymhzI0WwqtSxGR5xtEt5fk2cEddK6zNFwF5HnvIQYRuISRdTJLnNiWVUVr3mG0rxO9YVyQXpi2CETkkM/ZiRj/pb5KgjFbBn5rORzZCjI2GrdKiDlWMJJ1QJbZx5grHegrnyoayQOrrKXxSaWfDKdlaEUmorhfY6xfaHQQImyemHB5SNRbmb35ryNQTzPYJmpDsWYyEGuP2a6AfJEKHLTY9hR1H4sIAoVfGjjZ4zMFKG4JVAagso53V0uJZ31txGsp1PGOySR8MrdR1UqsqL8brCAltbQHvC2toZlqZrzMSLVwmphDmti7kVkWILkWxtI7t2gkM8zlcqseNcp62bbOVseMFsWOADf0CFEFivKCZElcuuQTSjVi6lFMFOUpvE11LDRKwBGyRFGWwgBIRJT4MYBe1BlyZU6QyKQelBs2XCVIQKnGsitAJ+AXYmXhnChPYx6eq5FeldElWrnbqqqujpKF07C5LOhN9F8rDXBXp4HjGxFX0yXXNMJdpmmXDJvEB8xVUgpmwZd3A87YgKOzLyVazToROR2BjMC301fMZGWCwpL96fbEWaQr+ZvGw7d0JGIzfA10mU3fNFwOoee9v6CqjUVcubY9tLIR0XtAeh41ROWyr48l0iOGUJwjOSREB4MbNHEsUI+0AyZFc0VTIhNb1T2Wl4S7khV6XQ5PVZEisExrlGnEx2ZybHRxyWSKaKrslGCF7kdbWDJ/VCEYUeuw21NiRPT8AscdR2SZ47aF64DUFiNycoWtYBtmzNQSYti2tEGBWCdH3xKsOMhR2euJtlxqmXIOQNdLdPmMRD8Cjzm5noSEhiv2FDiRBtRx5kgfFdqOL1oA9/wBBzeTXNyxrzVkwkctFcQ4cMkclLFdDgMY/N8NDjSE/NlwaaCPyFJP0YhXOUWotMBRvG11BTyvCaNE1fVjHwKuraZZLn5P1RClmYrbPU02czwiiUkySiOeClrgbchRjq1EEsIjUVSJDar+GJGa5EVqwpTfaTCAX0kydOjdusVWTqo7XZV63jMjoOemuqNM+cqTLzVYJcNY0ATwsRN2SYqqiOr36e9EFJqRv33LUkF/C18sPo+srCy+BjImyIn6UuBEnN4yI1LWw3cxYeQGMzmWTel9UBYWZWie8jBSrKTs1um/T7/lsefLY8+Wx58tjz5bHkGqiwvuRsR3FxZAxINVQSj8iOQnFvJ7s3XFRHIqOUQ1Vy5xf7Y+MEm2SYytao5BNOR3PVR/LY8+Wx58tjz5bHny2PJlDIANxB6duXsIODJIJq5JYIA1IXSUvsfiCCn37kM+PBhPtyj8uRJTJbHfpTp7YqcWz5pE5lc4rybKts7+BmUAmjgeXGRgI1iL0x4kMf27thj+zdsMa+PkkMaozdgFH6iQbUfz+DnsGm73Twp+1bEn9Nsf/AHZLjk+Coi+iqx7WKjHRB7k4rDF923THiQx+mJDH9m6RBbMVxxNC4bh2g0i2MlBHvWcGeEjpdtKFGaGE2opyhjwiqxrd4tw8AlY2kkOJZl/RlSUjj9DSpSHleVeS/cqNc72uRuGSPvS/6oGBd/Xw2XNlzZc2XNlx7mibyeWe93oJVVy7r9AjlD+wMwZfR2y5subLmy5subLie6ZL9o+Xf+0k5Ej2sjiwGmaB1Yx0iU5EcityzqJFaZ/BFMV6Mj0NW+CJxj/W5yMRXLNmo8vmId7CFI4ccCme1uRopVVzGawh9M9fvS/6oGCw/wDAfG83LsnikZ4pOeKTnhkZ4T54D54D54D54D54D54D54D54D54pGeKRnikZ4pGKM7U3WDv2ExMl+iR8vP9nJzSqO8RvhtmyL7oIbf2/WUrQjeR/wCKGsBOVJheZFTGxDIZoyMrREkx+IxMCxGM1hUy7KRB69dWyokEQCMc1u25Xo8RWp1jZ4D54D54D54D54D54D54D54D54D54D54D54D54D54D54D54D54D51z5GE8Rke7ysww1IgeFlp6ylzDGFWAWLBjCbsq5xXPMZEwF3GfI6kj65IUkRzBWJWGgkKY7vVVyua7i85KsDwRBeVfTLH+duDB5G8s6udXOrnVzq51c6udXOrnVzq51c6udXOrnVzq51c6udXOrnVzq51c48S8cbfXEYj0FD1tMHskutuqy19I6jy2qQ20ZQkrdRzqY74Fl3juRr2BsN3cTfR/WTnk6pXMbvsm8Nu4QszUZ3AhNzRUydJ7rDyv5sj/xJiJuuSbafcXTK2vo5s1lvZVEr6TGDHE4xvoT1yXeWVlapWVFVNtA38mpldqKshYyfWb0K/GUFLIANSF0hW+qxpVYsErfNUW/m4xpLx5rSr5gZYM09ZOYRIRNvfK4qlis3+K/sdjiOJAC96cd/uriJ/i49jCN4vlFHAEjABVVKdXR/4kyxk9OunyE0s2aN9hIg0FPJgPlzJ3F3warSMR7NtvhrcitrokfFTb7U+KZBKfT9kcUmriV1fFkz49Cx0y1qzYqKnw2XNvoN6mfkfUda1jBujTYkxvIBwCkicIs+KSsleFauZ3YYyLMjMlxpEd8YrocwBVOzwmKPIAVDFGi/H+scRwwGYmRCqjVbkSQ2VHGVttv2m4D+U2R/4kzVTuNBN20M38q0XLe7BXwZRQJAcWjPcWUWZKk6PkSTaWqQ2kDlO0gVz2WoENZTr23WurryIgLqqhtvZj4FXPksFPmD0c6aTTUosymjPNhjCjiIYxb3TdzxhSXOk0M20hJpmuNPOTx0hZEe/tapZF5LspUmupY1zPqjxHyLnUCls6p1VYgv4tbJsJFFONY1UaSfCrsZ64LTNeQLHZNoplb/AJMals/xGMvPUwEJXeXNJl++aJctURtnZIg44ySQvf8AFdkRVVk+ER3BtoPwzZLMX0VcY9zVTIVi6ERVwygsRNLFC1zDHR0f+JMtoS2NZMiNq5NxU/iEUEzTcoOnGgGeXaW1ZAqQdmaegDUxNFtI2pOjq99jVRLWrZVDnaZsj9mTGt2S4l5LtI1hqEU2ckuxlHp4MBulZU/qsixcvIJLKrkxhVL41W4qWYquyvD2dkfSIHApmq+Ws6Fd3/iqwytMWr+40cvUd1Glkv8A8jVUAgT/ADLdcI5auvvInSjvwv8AM7IzNTHG1yRrCUB/CXQQXR3zj5qaWxkRIqaUAqDlyFKRgRkI+Mx1laCarl3OP6NSznJIjwkZPiNr1Aonln1z3qkgjGHGzdPTOSf1/e+VD3vfN5R/4k+HJ3w5OzkuKqr77rm6pm65uua4kF7EADtLx3xqSKj/AIcnZuub75yXEVUxVVc1Qni1BSSMeq7r8SpuZ6ZF53XNxQEQkOVYYOsJNrYMiOHTU4pd5YAjjCGIWs7VIsPpD0fXqpSWD2+phfRqSpJN8UqOkOxIviHQ1Tq2B4j29Y+AZXNVjXOa5fT+/wD8qHDVDtaIzRs2Xsszsszsszsszsszsszsszsszsszssx5Y5UahO0xc7LM7LM7LM7LM7LM7LM7LM7LMccLuPLtMzsszssxzkUiuR41i6ZexkAI5enwgSpt1rOUGalxVqm+TtRgEx3Wj18zUk95VaMMUI44I33Fe76Ua34FCMw3MJYafPHVXxtlRVTCDI4gXNW3LUkdwgWhJkQchWNa/CD4DI/O27O27O27O27O27O27O27O27O27O27O27O27O27O27O27O27O27O27O27I5VMVGL4UwxfF49p+pTw5RQNrHitKOMuUcx1cctbLnVUOxRPN8qsav2ppmB7ynvGJjRCm2LQkZGFFCoAMYv1Oc1jVc60vHOVRR2V7pbuRJkJkXgNtqxWEDvS/wCqBgskfwHxr+Koqdl+dl+dl+dl+dgmdgmdgmdgmdgmdgmdgmdgmdgmdl+dl+dl+dl+OO5yKiwVTspiZL9Ej5df7STmirlBcq01zXJZj5xxakvqQvXns15Wub+ZI1xX7flzdVz5W7QaZq5MKVDnH+LntYm7mSI712TN0y4s3GJ1wwYG/wB72Ca1PS6GqGCTNSDjt/DCApf9UDBfDZM2TNkzZM2TCBEVuziwij9W/SwbyrswMFrdlLsmbJmyZsmbJnpie6ZLTikdMvP9nKyxiOUQZ0eq1U0zWimEktKPgUtTUFXfGUNUrtk+WAvC1GVtO2A7m74Ee0Q3PVz3GdyeIInC3WDKXn4X3k9IUR21bHccnke6whxl4ZHkBlN3FMjJKjuHl217XA3oSNfXIxGSBKxrkWUz7tu0zO0z03SUz7OTZTPy+TCvc1Fa1zXK9EwgRF/e6vb/ANCwJCeza8q/uZBA33TZE2T2Tdee7vtSSxFZzbKb9nJJTdk3WU3ZdnSm/mcVkjVXbSHic4TA3BGlsZjmwI9ZOjCdFm6VAeeog10OXGnBh4LTomepQRQR0/L+iw36zsRds8i5D3dLBtqE/as/ChiLFjMCwfBHs5ljeDabXxZLJQubdQ1PdjvKOLKk1x1cxuo4ip9/zFBz5ig58xQc+YoOfMUHIVhGm+oGTEVWecTnORvjQrfsRzVRzUc34cmIrEXm97dxFOEbt3GkvK37iX9eN7mt+YoOfMUHPmKDnzFBz5ig5L1A57HMixqqbNjmKACzIRWmBHlBuQuVtNVSpU1hzfU5rXtc1xo5Yy5y5ejYEJY6KUgl7E4xVsE/ylTIS8ZI8SLxdzCqnhSlckeQOQ3kyxoohzNM5+l4qOKuPogpujPwLEoVVdk+WJPBX4OjGrkQk+EWsleF8W/kC2bJjWcGSqeJsuUz37bXb8lljXnizBKqrnde1NhyJLuPKRJv4YvQEmdNsXo19Zo40yKsiQumvt3SPRkNKUC29eSskjE0QpBl2bErWGOMRgaWhCXco2NE1Gsuq5Br2w7vERhhwrPh45o2ua9rXN/QL6BKuVn7kyzC5HsOjX8VRzVkHf8Aub6+w4c16o4aMkRRONNa87K8EsbXxbMezpAHxiKxw2yAcWtk/ibGuQsqxELmwZFUrnvKotv2qi/9QZckH8LLy0bnzDPxdQWK+z7eyL6YlXaH2I6LpiSROZo0GJEb+VFH4ILWuT9qZAK0r5it1FWulCgkbFo/y0RsyrcFMrJay4+z8VGua5rp8RYch4VgH8EjxrRF5xHBX9BycmOTIX5RXNUDt2Y+HCdu57i0wl9G2gt0aA8yYPZMlsknaIppe0evcPGvcNUcwZR2gFE+OZg2miTGTJAGPYwVYNzcfUf+pK87McNzfdUT+/ENfYg+LXKlNGjSvzHQ4sQcgGH8EuMqMbZRmFUGdWK4nmSY/wAcY64voi5pc3nFMxGNOjmLHYxBpliFjmLkWE6Ofzte3b4XUXsQ1I0v/wBacP5SK79FMsRdSyLkEu7UTLhzuMduIiYCYoQIIDgoFBxlcjZFoIbbF7pEkMRhAiE9pUlCfBlrweIdmBhmJWzHPRqgikfOksT8Oe1n2v8AOJdnkGAqfceu29WEE4a477mqmaed4mMRYcDsgeVwBmDXHVxZKc3NII7B+gnilzfVpgGEjmk0rJ68+RGeF+22GnpGVqrNt0d7CtkRiplfYNkqQC/CwB1ZUgGaQ+79LUEBZUZDMgyPbDjSbG4om7XK1yKqKioQjiOV74LEhxCyX1phNlEPIjOYWHOGSVJ7Io7Vp3uQ5h45dslsUVjKVoFL6Z4nlb6kiqmEY4e/EiDL6KeIrd1SGZwwoj6uQE0cKMc1HNc1Rla1PCcsZzG+QbVVrkc0dyQbfzpz+tdulhiSGHEN7ZQO3HIHHc0c5r91wJnxzDMwZWGGMo1XZM1HskkBc0OBUgGOv6PkCr/GtxWuhFWSGNK22x4401PvfWSm/wAcWsdyR8mYJx4xht9WO4v5JgY55P8AHFjDhNdkmT6LnAksy+OGxHbYCOipkoCImSmbKuSG5ACaa57FLXA6ngFVzj1S+MjtQtO3iFFTBGIB3IauiSd+MqQRxHBbKopBa50lNP2PB3Vex/JMu4O/+YP4UU1E8kR8iR75bMLOPAjBgQx18SPFH+hqKbIGgokaRCQb+TtL2JZaSK+VOqSxl8sYUnZcFMXGy2riSGY8gCJs/wDwmeqdghfQcg4xb+YEWXavTjEghgiRgjV2xFKAMjj6LIUr0XaTFL6uKGiNNcmEqXw04xww5JnI1DVUY4GjWVSyozlVnkmC9FUst2Brp0pyZWadGDi8/Fis4ZqKhJEK6XFp7pJLUGRDtVPWzidInMbjYkp4SMKzz+dGOZVVaRl7Rvhd2q1zQjE+eWLFDIwBhyAiMz6J/wDiygzHW0wEkj3t0nCMj5E0mTaeHN+5ZkGXAO8bWzHs/ek8ed9mNnHd6ClknjD5JkArX/nMgXsA5EiuVMVuOYjvRVigXBxgjduxExE+h8cDvVzYkdPaZqCmr3KNwNVUkh3HEVHIio5qPaqOt9FgkuU8He6g/ZMdPYVrmKWtkOdvFgaQt5iop6qkiVYmNZ8dUV8g/WlAYyfKe0IIEbqQ40f6VRHN2X8JrufPERGpsnwsITz7EGgjO9MjVwRtVS9OKnsjBsRdreyfaTzHdSW8IcFjH3MoUma8gtN2L7GtapFzbOObYn1aksJAmCgxJEGRF28rvRc0XckbIStN8PdPVRCX38Y09vpX2zgxF3T9Pf4lbyE9uPa8BHjf5MV2+aJG5sCURf0pZhA1Ejj6klxXxOCPzTjXPu67j/ykzUemyGK6ZDfGkCdxfV6csLIrd4UQUGMKOL9LUtMtpGa8R2FARRm2cRyI3StESKqzZP8AzHDG73REb7fqSIEOV/NHqq6IvICeyf8AfP/EAEoQAAIBAgIECgYJAgQEBgMAAAECAAMREiEEMUFREBMiMlJhcYGRoSNCYpLB0QUgMDNygqKx4RSyQ1Pw8UBQY5MVJHODwtJFVGD/2gAIAQEACT8B/wD4Uf8AJnA7T9T0tYeouztMqiiu5PmZ9IaQH/8AUa00+uCNhfF+8oiqvSXktKwYbRtHaP8AkZtXqC7P0F+Zjs9RzrY3JlfjKAzqUOr2dxhurgEHqMezDKrUGz2RwZcA5Q8xwPgqC46mAOowYai5VKfRPygg/wCCrBL6t5iVbb8MqBx9TSQl9S62PYBKtL85s3gbSu6X2oALTTmq0engU+OURCx5jDk36oSj9FuHaiYey01qbiUgCVsWh9PUphKPadvcJUYk6zeHEu4/U3wal/cyvxTsuEkC/wC802vU/E5mNR0rkec+larL0ah41f1SlxDH/FX7s/KEEEXBHDpVKmT03AlRXU7VNx9Qjx+tzaak9sa7t5DcJh9q8Oo5jpDdDyXUMO/goCrpJ1uSAtPx2wpUqtrZnzmhYx7LqYaij/Jrg284uCtblUmzv2b4PRE5eyYBjGT9ojYtHYvgrHWg5wv1cBAr0xl19U0SpfqW/wC0pmlQGZB1tPu9HoXt1v8A7cKEXMBHB92rcowa5s1zSL1eUHo1MswfVb5xWUA2q0HHwmiKhf16XIcHrtkYcSjNG6aHUY5OgObAn/BP/wBYbxrVqxwq3RG0xsVbBi4wtdiY5w35dPYwhulRAynqPA+DBlVqjXfcsZnY7SbmOzU9tNjcfxOaw+psZCezFwNDOhPvH1dXXOVCnm15Rf8A7f8AMoU3U+q64f3vKzYafLanfl0+sbxLcaowVfgwm24I9pIOdyfIr/8AOG4y4s/lBtwAcGzix+gQXN8hBiqkTN31ASu1UjnJTW9u8xDhOoX/AHgCoNSjhTFo7G/WOyZ1qNPjEcevTGZU/CHkVFxDtE5yVTSPY4v8Jtj3qaLbB109nhObTZg35o5tumZOoTnJSUHwgzVCYbsxLE9Z4EvcZndOargjv+oLq6kGIeLvyKmwiOIrLowPLf4CCyqLCKeLDYBjNlOHXhX1v2lkoJlf/Xw8ZhO96h/1eaIXtrIAprF4l31CwPgYbZHDU1XU5XB/eHnBqfb6ymLbFdv0Tbf5/Cc4Pcfly+E0bjGGRd8lB+MqrxajCiIluUYb9sWwrUkPeMpqX953dk59RhRB3DbBlbOeHAdfBo1iapejWvyl6xEeu2B0pso6eWYlJqVltTRtfbac563GHsUfzNejoHHcc/KHk1sVFvzavOJiRxYgzS8KbmF4/G1Rq3Dg2iDkYiaR3qeBzMnqnEfqoGHXNApX/DEAHVNgJgJq1BznzqHt3DqE5VUjkr85XK0dY2ZdW4TTK+j1BzXRrqPIfvKy1aVT7nTE39ce/wBIaO2OgRnxqg2PvRgb2Rv/AGm1+Bg14kPfM6dAAdp2eJnqrrg51Vrdec9XNu08A9JQuW/C015/tO+G/E6Tc9/+82iaxDDBdm7hbaTOYEXD2WyhsqoSTutPpA6forC/NHGL3bZTrVapOd1OXjqmZalU4w9qzX/VUP7hw1VQdZjX7o0pBtx2iaa2HcwvCatQaidn2PQMtjwEqvZOVTU8q/rndCDo9C5rDXjYak7poNNadssZtNA/o9baS1xxWBfWHtGUvSV0Gj6JTAzFPVit17J941ZsX4nKzWV/uNoOVsvrv0jG5RHpDuG6C1HR2y9p2+XAchm3YJzGNgPZ1TmNmsMH/ltKXBU6jsMqXH+HV6a/OVLHYwnK64DE5baM+lVk6NBNS/mM9JxFPQ3cN0tKYs588pST+nq0AaR2viGd/OKX0cnFTO9djD4zTe4g3inlghnO4wZCqHP5OVwLfCpNt9o+JnPco3DqjRhNvMPw+z2iZsWNJR7J1TnIuFOt22wnDSbx2kzSn0fRS2GjSTW2zZrMaqlJLkf1Lg2B6lJ85pX9Tpuzt6vnF4ujQB4vFlmdvYILUUyTulJlLetrc9gE52sU/wD7QWFy79btr4DatpfIXqTbwAE6VpNOko/6dM4nPwnpqJz4v1h85TZH6LCxnNH3dXow8bS14k+IlIlNWLDlK/GHSah44DILY2An+DoKIv4cGIz/APJfRFGpSP8A1KYyl/8AxL6O5Dp6xw7O2IvHDecJvvQz6SZRuqUsR8QRNJ44qvLbDhAO4a4MrcXT+McKi6yYvFUula7GZ3N2EuI2UbPWJ/iUwfsxmUKfm3w76rDyEyNVMfvHEIwIo0MajYWCDPxaE4E0haWDZhF/3Mp0Gr06rKy1L6rC3fK6UqAz4ultj0xQRTxpvZbdG+8xqS/+mPjEK09bORfLg5utuyfdLyKY9kfOC7uQqjrMN6OhJxIO99bt4z16CHymjo46xeaKqoKd3AyF7xSo12vKS2cWNh/rOJxlJHxI28RvRfSGihSDsOAKYv8A5/6DrstRd9P1py9Fr56XSGw7TNKXRdI11L82/tDf1iafiwG11OJT2Xl1Dm5O205FGks5FEHkU/ieuOqLvMp/nb5Q3aCHkKQHYnm3nNpoF8Psaioo1sxsJpVKrbXgcN+3AvoyiojDqE2UKHwh9JortdOkjc7vF4mBa4szbCRNPqI7j/Cty+2+Rn0w2etS6J/bG/UR85hZ9mZJ8gIo4xudbg11BZj1cHOT0WjddZ9v5RMzGHo8aHuaaZRH/uCVUbkaw3XF2cFNXRhyqZ+ErcW18qb5eBlFyzizm2MNNHdFqG5Ti8h2SnxCtrxHCPCLxz9NhyB2CZsdZj4aTYmPWVi4PbbM+EqM7byYYJTsnTOqEkFVUnr+yY8UGPFJsA+cLq6Z402QWciz/iGUQMrDbEx0RTwKRrAtYQFA/OB68/nKguM8PTECqPVbYeppVWk3+W/N7jNNq0AusYri3UNUqGrUK/eNrmxzOaMlG8zXHz3LmYjUtF0dLIp1knnOesykXPUMU0Gpbrsv7zRU99Zod+x1i6VSttGK3lKiVgDqqD4iUH0Y9IctPnHSrTdzULKb8z/eNUFzlyjK1TxiYjvbOZCVeKoKbcYvOfrvsE0yvVANwHctY98EQr2ieOwRhWf9I4By6nLbv+x2iKcmOE9Ib5QZqrHk4RfFfZBZmZnI3Ys7cNFW7RK40emMhd7eENasTrIRredpSr8nVenecctamf8ALsCN04/3Ia+Bv+nONFJOaMPnPQUNw57d8HEUztfnHulM1m31PlKGFezCJWpoMr3bfNJXFiK2wnWBeaXSzQuL5ckbeyWPYZoik72Wx8ZXKHoVMx4wNRqbG1qfnKDI6+tTF1acf/25/Uf9ucZeplUdhhsvV2y8ZlXacN5pA447awwnuvlKYMNrbIDLClr13v8AZ0VbtE0ZQ2/gcKIgQdJ9fhNIdtwva/hBjqHfqUTTs/ZTLzmnt7n8zT29z+Zp7e5/M09vc/mae3ufzBxtbpsNXYI/FoBc75QC84Y316siN4js2JArDUO0boi3a2I2121QwAgixvFsSysSptfDq1RwylyWDjUu4WimhUwgkHm5m1r6rykGptvzBmlPTU+rhxW75p7e5/M09vc/mae3ufzNPb3P5mnt7n8xxXQaxazDulTFSfKkx9U7uyCMqoNpiH+mVlwE9LbAvINmqnPPqmkBxuZRn4QYXTJ13fZcqqdS/Ez0tX9uyZdU6zOdVdrnqXIQGpVZVYqGtZSbX7pQ9e33nqdL+JQ9cg+k1LsP8Sha5bF6TUNnjNHtcHF6S9t3bNHtdLt6TU27+ZQRX4vnMxazbv5l2a7WJzK4tg6uBwvbAz+UpKPOUfAx7Hc2XAAe3qlnXCfRudZJvzjeaPqK4fSWvv7LSh64A9JrXaf4lD17feer0v4lD1yD6T1dh/iULXZsXpNQ2HvmjkZMWtUvhtq7bwnC64hi1iZYXFReq/KgxOVFyeaIS9WobDco3wcqnRY33tbXwEWmpqRxeP2ObtzRMJBPJbbL8G1TOlU/ujtlTp8nDkMth28AgggghwiDCN+2G53n6r5btk5DeUEEEEHCampvvOdrm6n/AGzRKr7jhy8ZY6VU/SN01GUmqaMxupXMr1SjUdt1jLcfUGY3Dd9hkBASt8lHRikITyQY+vUt5TUm+vYJUxFkqX7rTpVP7oX+7p5EcnVs+M6BmImUqvgZTq+BlOr4GUqvgZRqeBlF/dMov7plF/dMov7plF/dMov7plF/dMoP7sp1fAylV8DKVXwMpVfAxKgHXeE81uAOMn+8N21zcn9s5lkt2/UQfYGyqCT3SpgQt90B6vWZsiFTa9uqKeMprm19QgsJxfo0fFia2u0wY1LamvrMZuYotsFt01lSJbxjfqjfqjfqjfqjfqjfqjfqjfqjfqjfqjfqjfqjfqjfqjfqjfqjfqjfqlrWMvARhDc5rnM75xOBgtrvuFplZBe2+E+MJ8YQeowHRtJ2JU1P+A7fsNVRCvjNIJqU8VLCNRG/gcswXIsbyoalZhd33ng6HxjW7pU8pU8pU8pU8pU8pU8pU8pU8pU8pU8pU8pU8pU8pU8pU8pU8pU8pU8pU8pU8pU8pU8pU8pU8pnmJ9IVbBjYE4hr9q80anWXevIaVrVNtJ8n/wBdnBk4zp1Nqn/WuA1FQ4bk8pPmJUXCRcEDIwAe0Prc9mJ85r2z13AmkVaFMk4qlMXYZZDqvKtSpSW2BnN8906Am88GlNQ0cOVaonObBzm+U0ltIFEFqdR+dlb5/WqrTprrZjYC/wBaqKShyrVrXJw6z2TTf6tEp4seEAqbAzSaX9QNdLEMXh9j9G0rlc7DCfKLxbbm5Y85o4ptfkVE39Rh9L6j9P8AngXl07JU/CdUzR78X7J4NY5Ph9TdKeBjrWEjsF5sqCKGG6Iqs2oCG5snxm8w2NOg5Xt2TRlr6RTooiKzYR6Q68+yVA+maSeVbPCL384OB1ZDqYG48eHXW0jyUfzNmX1DbrmOi5ptSNULiKXN8ag6xlNIOlF1apV0lmxFrcqNfSKml1q1VtuFQD5wcAg+q1RcOV8HymkI++2vwiBkbWDGJTnUqm3/AHE545L9omqrTZPGDOlVUkfhM1A8nsOqazme/wCpugU85TiF+DXrE2jPtmrDlNyfGbzPWamv6hNfGUh5GVEq16dQUcOvDUPS7LTTtIbSGo8ZSw1MIS/MtbfHxVf6auMe0gXXOM9ahSqtTo0MRCL6xbLbnHJoUdItQDG+Fc5pZo6JTBNStT5zAayD+003Sa6l6RtXqY8Bd7Q2qKuFD7TGw8JpLNpBptaodfKfCI5eorOhY5k4TlwVAlNBdmOyLUIZsKOyWsT0Tsj4lZHouOkrrk3bnK9WhRppavUptZmuckB2dc0mrWoImNDUbEVtbf2xELpTYnSC27ofsDNI0tmxsNLoaRci19aX6pX45U9QXAd3NsJE+mnWumE8TSFqYubWn3pxKxG3CbX4atcFhfnDb3SsXCZ3XkuvzluOpmz229ffNdF1I78pqsjcGoaTV/uguy07fUymlUyfxTU/LHfwNkNUGKk/OX4iVVZ19Xb2RSDZMj3zeYbM68j8Sm4n0fX/AKnSAqryDyCu3zi8bpf9QNIrAZk5EWG+159GVw1FRx3JsDxY5OufR+kY6dNv6lipWwUlsI7YrJfSXwki2tRnNBrnTa74VIXk21Frz6Or1lajgDUVxA7cpor8vSxUamFJKKhFgfhKFVKNBQNEokWapnymt2TRKtOho1uOdltd9gmg4qY0gtW0iobIFNsl6+A+kOFl6ypvafQNd66PjpPxZy6s/wB5oz0wadR0Uixd8PIVZSKPUrO5uLE7BNEqvX0ynxejsq5We2d5otRqL0eL42kpddhvNHqUfo7RDenxgsXIN/OUQXtRcKMsb3P7xNK5T3dHpcVSTd4Svo1HRNGviWlymrX334OqaRS0dPVUqCbec0nRdIp3sz0m5SfiXdFw06z+iX2ATYw8uqwJHsjOanZUX8sNkRSzHcBBnpGkcr8xznT+H1GshTG/tZ5SkC9tcu1TRHw32lD8phw1edcZ90MUjfNcdmyp6zffN54DwGE8Bhh4D6EUjU7Xvbyi2aoz1bdTHLy4SeEw8Go8V+ipDt4eqMaf0dQ5OC9uNK68XVECaNSV/wCloAWXk5YiN58ppBo6XxK3dSVx5etaVlAJ5RDY2bxi2RBZRG9LpHO6k/mDk07pT/EdZ8Jv+H1Biq0xYr0hNB0jjNxWw8ZyqtQ4qkF6DHkndPV1Q2G+G/XKWF1CY2vztcBitFaK0VorRWitFaK0VpQD4TcYlDW8YGitFaK0VorRWitFaUsWE3W6g27IGitFbg//AFzf8+v94efQKd+r94jKEOR14ersmnUvHODGem2SiFhQB5dY/DriYaVMYVE9UW8fqqOBbqZy6e7aIMxrlXCFPKG+aOlTjQL4iRbD2Sgili2QJ2G0LXwqTllyuuG+FbxBEXxiL4xF8Yi+MRfGIvjEXxiL4xF8Yi+MRfGIvjEXxiL4xF8Yi+MRfGIsUDIxoh5QOT5HI2mh0mChcyx2i85tbR8LdvNMy5fIY6r7u/ZE5Y1OuTTTT3pf4yrUrezfCvlEVEXJVUWAg43TKptTpfFtwhu3rHefrmwE1eZgt2So+Mi5ub2jluSdc6VT+6F/u6eRHJ1bPjOgYR+84v3FnF+4s4v3FnF+4swe4sCe4sCe4sCe4sCe4sCe4sCe4sCe4swe4s4v3FnF+4s4v3FnF+4swe6BD6rcAcZP94btrm6n/bDa5xUu3asqinpK6iea43NNGxqNQfI29lhrmj10PUAfjKFdj3L8TFFBT0c28ZZjpOIW1sNt/qMAOuVlPfwnKazBNTJh7xL2ek2LPaLTpVP7pj+7p6+Zq9X48Cjwijwijwijwijwid4nLXz+spaHEejsijwijwijwijwijwgHAjLk+TNiOvfOin9s54RTUA15esI+CrsqbG7dxiLUQ+q4xCaLgv0HIlCo53Y/lAmj7bKLk9pMqmo4FgTs4dkM6756ob9Ew8tshMyYWcjXg2R721jaJztaHrEuLYhbcZrp1GB785VwVQqpyrlbA7pWpc8W183b3yvS5/XzPnK9Lnm+vmbO+V6XObFa+rZb4yvR247Yu60NKowpnEqGxL9V9kPNNj26+BAevbKpHbnMB75UUdmcu/bBYbuBbgEYmOQwkXup2yvR9bHa/db4yvR5pxWxc7Zbqlejfi8+dz/AJSvRvxeXO5/ylejzRgvi17b9U0mmBdbZEm3rXg5FNcIhyBC3/CLTSSCqAN1HrE0ynRODG5tye6fSmFHbCOTiF+wysW7JTwj6u8cPSh5FLKZNUHKPsy+C4xW12lXFTGvaV7eqZMOcu6DljM922ZNqdDqYTRqynqsR8JRr+A+co1/AfOUa/gPnKNfwHzlGv4D5yoVqL6hyYRLlb4ag1rfKVFqryBmbMBtJ3mBkZgxwt7PZCCpFwRt4XW7Gy56yJT5yEgvyQDuI1yqajAtZV1AEWsd8ISmuzUAIKlQD1kAt5yjX8B85Rr+A+co1/AfOUa/gPnKNfwHzlI0766jc7ulK6J4tvwzErDaJajpqLyuv+P2iYU0epds7ksNXd9fUYCybGGcRieyc8jwnrVCZsRZo4rXyCHrmi19GqexhZT2i8XCd1rAjshz2rtEo3pE+kC61vtE0yphxkIqjGbDbK9X81hK5lYk9QnGYQLnKaSwB2jZKgxjNWU2P8ROOXpan/maSFfotyGjYh7QmirmnF3U4Th3SnVGJVGVTVh3TR2Jx483ORtaUaaZk5Dadc0gKvtHCIprt7qRiRspJqmkcVcHAi/GaSfCVLALiLdUfGrUw4JgXtlfAHyxDfGaoRsOqLhA1Wi8hj6Reid8NqiG4MGXNrJ1be8bIbgi4P2AnQPAvIKgE7iI1iNRE0iofzGZymyHpHkz6TcovqoAL9V9cOF8ON02MpP7iLZwPzDsncd80wU0cXpt6rd+yO5QjMjMeU5dQeAMJdmN2J2xu4xPjNKqJ1BsvCVkf8SD4SnQ90/OCiv5PmZpbjqQBf2miVjc2x1P5mLAOgp/eUx27ZrCEnvz4Bqr8X7oHznquUbsb/aLlBD6alyX69x4BdWFiOqZrrQ71MPIq5fm2TXRaw/CdX2O1ZrViODRqXWbWlFHPsri/eaG19gFh+0pU1c54OcwG8xy2O+Du6psRaYjWYajLLXXMfMQWT+0ypySCADna81xot4LRQeB28ZTvfDlKSBcQvlGDLjAy33tEwopwhtmUpJi13E6BHjwa/6kufzj+Jqtlw6tTDeJq4B6Sjyh+HaJ3T/Fog94+y1OcY7+DmHET2jgoAVmNse+8f0+kH0r7l3T7ugB+mb8+0/KDFSXSDTYHqjWscVM9UslUZHt3GIFHSJylVltWcEg21GaViPXnEBiYeATdNt/JobXHo/nFwutTGAfZtNDokXvqwnxEr1qHVlUWaYle2y+HylJ17plxifqTg5r/vDwc5eUnWP44dStyew5iepjHnf7IekpZ9o4OeuaQWYaxDYiNiY6yYM2XFbqGrxlSxwkjrJjgE+kF98p2amLFr65qZL+HAcnfGPzRjBBDBZuBcqT2DDcc411wjDbaJqIsYuOmpsCOcvZG4yl0hs7RGIYaiJTxdYNoLBqpqAde0Q8lhcQ2JzU7mEyZTYjr4Ochv8AxDyHFxwevTsfyz16pt3fZVUxdG+cHoWPKHRhmT7HGuFag7bHzlstSDPxnOIy7opUjYYZTJHS1CNiqNzm+AhlMvgW5tu4B9RrU1Gb/CDVnc6yYDxWI/l/iZe2fhDHsdu49sIo1+j6rTWDnbMReUpxDr3+MORN6fbtHAOqqP8A5cJ9un8RwC9R2a3UN85tNQPsWKtUF2Ya8PVFN/ONxuBQyM2spqsZyqe1d0MPAYqv2i80ekPyiIzdglW7f5aG/iYvF0d+yDtO+ZE85Nh7JkZTJhSkvtn4QNSoetUYcpvwiUiaI1W198olRtLQcoDnS9t4g+EEV+7KWuNkHJtqik0ybsBs6xGtWH6uuZg65no7nL2eo8B5SG4meMAr3wemZbD2RwgGtVva+wDbNN41zz6RAnNdQR9Wnip4MDdXXAAIpVSuCnfaN/AuCp0lnpFG2UmHdDDKN+xLyuaNI6gxzPYon0VU0hBteoF8s5TOjVtQR9R7DwgHtlIecooDvtn9akp7pQXwlXE41rSGK3wlZqRP+Yth4iG4MFwZU4itr6rzQXqAf4tLleImYOtWBHkYrOvR2jvijR6e2+beEu7KOe2v6gLGkCGUa7GUqjOTbNSAO2G/FoBf6ouJoqX7ILDh54GqaK1+uUkLtrylBPCIojcgErSG5RGVWUZiat8N6tJuLc79x+zvx1cXYjWF/mUit+B703B4rqI2cIlNYg+uo7ftDw6ypgsysVI6xw6nq5dw+z1NQQKT1ExgznVwf5l/Af8AGLdm56fETR3U9amUmpUvWdhaCyILD7P7+lzevqiMjjWGikk6gItqhFkXcP8AjUEH2ujI/aJolND1KP8Anv8A/8QAKBABAAIBAwMEAwEBAQEAAAAAAQARITFBURBhcSCBkfCh0fGxweEw/9oACAEBAAE/EOjo+g0Ojo+g0Ojo+g0Ojo+g0Ojo+g0Ojo+g0Ojo+g0PS6PoNDo6PoNDo6PoNDo6PoCC0dHR9BodHR9BodHR9BodbOZZzFKc+gSjMs5ilOfQJRmWcxSnPVcE3SguBSYpMIyzmNIhlll2uTH4xFg526ffJLbhxJvziYCPrge1ybgnGD7aMqCfafj0QlGZZzFKc+gSjMs5ilOfQJRmWcyzn0AUYlHEQpx6AKMSjiIpx6AKMQ6fOyAhIgWMWi1gmZxS458CcLcWQsiIrWrP/WOQgcUMyWx2TTAZtSOjChnYBuQaChet/a2g0tbVvQBRiUcRCnHoAoxKOIhTj1FSsA58AZekHtTxppyPCORjo9XaeWf3KYcSuAvPEjnEUMe4sSI3Q4VDsXCbJfhxQE0TBpXs6PTQQaaWeCkQ2iJ3GUhe5xMW3arKQJk0qNVW1WABC0hoNfkTUZaIJAQhpBcMhqJxckSXSgsWOgYxmOyz2Ity5wRQifZOWSEPxx7fveZKyxARHIkNDooDzAm+yk0cPFb3OoaI0gGuggYgNnp2ay7o0Ipi2+34oJ3XbzVTpFHEVxuqWzvCA6H6SS772z2TMdO7USLU3/EWMLWe1exVPaFBZ4QO69DDWDLGvH+oNHij5vcl3StNgAudFPaCUhEQRGxGC2MOJ5RZXnVj8whXjCyxriPBv1BLVkggmQNNbZqjSCVijMbLyhFMPh6CrRD2TAHKxhscTY0CDQ1TAuGaUXQQf9K03KECDNfF0wpcweB/pNmG9Q9lmbsACCI2IliO4w1DeZBJRoLbvcwYjm8dJ34gYNnSjSWtKZ9yiXI8q2wfuVinaHSu0G47j1o4gIv4CEuDGYgQwmCVqb+yqQm9QfDeLWibVEc7tqE2k4/SolWpHtneDtH/AKoKEpSqzf1GM+SB3cmjvZHeKXHMl4jJqxROFPsvo6hu6QlAAOAl6cCDXIAAyqtAQC1+HEbmTXhnPsBqsa3Wgw/OEIypjuryoHcVT0Hd5YAkKDnUIibxarKiOw3cLFWT+qA/6kL5KR4yw5FIvLD8MGWIERj1q9Ll8TGNe2WMeqnIlQgFBQAGVZUU9u0h8CD8gpGljBZVLVl1GM4Jm0DGBVvtQxRxKOOhfhk7iR9y4EXiKaMb4+SDYHXwIawCqCBoBKARSpb5an+Uv5Sk5yaotn1hFTqcAvvn3XD34scnliMUyZhn54T2KRAhu7CXUZqIjoaZFJiPOLFPeFdFph8CTXr4eJVOVNuRwawsNKYLmW21og0sk2BFV7tRvGdBlOylXfKDgYCWwoxalqIAzS6OiRUqg5yyTXWTuxlZooCEdEg92uFjLX0MzOn7sTGITTvdGs0naeflginy6Aj8oaKJ3YbElqUEsSHaE4x8Y1k40/Y6CiWMJHrnArsU9oSEcSmYOAIFbQjqGgdbOZZzEYURANykhtxg4mYBRP57hcYmgFandpxSrIEHZO/ZKkAJqW82J4+8qKfcgVYyMStAySRC7pzCWAJaSbeUn5Rp8x7IZGz5BwWB5gdzeF0CmVmIyTmsD5le1iznMsUiFR581fUCj4gQjhKhkO0PBIH9EH3lTYlMQjKHDL1IAQIcpTqgAtDgAFV0IiI3UtFhRLFce1QLcp+iVV99cGINkM86BDzDbbVD4IU+Ch1lyDAkLKhcOiOoEhMAnDtpyMv6+0MZV6aGEAFAFBLOZZz6AKMSjiAgGWJJE0jrTL4JcJY/R0QMoGAMajhxgN4LydghZbLXfDTQ8kb9yDNfqG6jvGkirXha9peDTfFBNZaxqLD/AMSWpKwfSsoMp5d0HiGA5csWwCWXBBCtudojCArqb4UqmJjU71LgwOLSiXU1WMbC8cpwe4oxFAnjGGw7jMn+7bL8utE5i4CQE4qCLvvcsKgvhEUV3P8AGwX1hOIvHuvAlc28MXgCuCBZq+dUFoi3XUy8Dhh1IkMLPZhhwXS7vKUIhTj1mh0BPRBjG7EwQtAalOAL3bjXVe3Ngvc7RG1UlpdlIPwUgnSOo9oDGqU60vd8o5ehi21s4NetX9n/AAgphiI8TSQSBpabV1v9JRuFDeWoyjFqZLk3UzjLLgtx/GWotoSlY8cE3ViovIhGuvBuruy5VpOLkIhIETQF0LivsgVE4W3TsaiLiAN2mEYRRfYHg/FZB1+2el2rAPtnQVEk5rbyV6Iqq2f9MMcluoCVaOwQH72EJhtaVtbUlQsDkcJExu0C1TSDkTIy/NU/KR0fWJRmWcxGcxo+whs+DH2OnZg1M93gNQxs/wCqBhosGFMg34yFGmPR5mIt28TKo5WWMlkhxJyrmLq+stt9n92EWu/A2HB7lw9mQsSGTShNuj5xr5hiZJ6uAIU0M20/Ik0HL/lNxbxcY+EYnMAmijKkEBIKxAprkLw0bNmJ/ABp+6EbGsSIEYdyPNoQjkYtfOxWMLqi5bUVTYhT3TBEou/wuUTiBnK/tWG77Y/qxjd2FBewarBfamvcm2Nt4wtJyQ7QAgp2ax67BLqgqKU59FHEo4iFOOmmp4S92e0iq+TCxoQRNRNEl0bTmrSe8dB3xAEZke2Fo8glO9qXnO8dBwqqjUTBtxka8LA5kxljkhZirL2sxORysVLgiJZwNR/uUBBFA03aV5mSJQUVVdWJJlKXmqMWLuP+sdhgARVMuuENxpXcyTLgLTrytonYeRvfEhYLyECSrwWZ4IhEgFKw+BDHRzhd3cjIsTKZexwRByMbZAQJCOE9mLOlq5Y1itI2iwR0eUNf+oLDu9HqAoxKOJRx1dGORwCsJvA+rtvLnbKD84ZBAzltK3rEhbZrHmoJ2mD+BkQKz8+8In9QRSBn/wBINVFEAu1lzHtm6/FMCToO9vcqCmwNCvgAniAeGC3pDdPHmWi4WdK3iJnRv45+jgj2Xe7hoFmhVPmQXY8/vgegHNmgD3NHySU7uXNw9lnkFL+ChAH7iNCtu8XTdKlQEylXs0jQ0OiLIAUUBbsAS+Km+TZBXPdv0LBtSwClsCsrFYiTFxAZ2KWmvMsLUS6Sm7DrFBUAoAoDgCXypPc6jQ62cyzmKU5hObxAMMzMW4EUymot4EAcIPRt+CWcxFOSVbx5DeUjV8CNiq7agQpAFykQXRAbHrH40rwZlQuVz/2tFxcB0/8AUgsmylDt+8uXISz2OIwTZASIJELSWAPdYAKN4WjMXQoi34wTdKe0MyJPn98uXr9BMC2YM/HyR2FOKv8ASQUywJ6Np80OeJ2m82uHug8rTgilg6ph2Bjr/ju+OqkJBTyWMPznRtitcEWr1AAiBAAAB1EozLOZZz6AKMEGhRsQUY4EBplp0UbE3q+CM4M5oU57AsJ0Agkwyqq56ugTHxcbx8p/Jx/Jx/Jx/Jx/JwqM2M7sPBAEXnc1JQEVWu4E5di8krXD9XS1AbTfMDAGkF6dneugZIoAIjqI6jBAmqG65KLAAYqiCwWwarBhrLArJZaKxoySaDMMzEEzHqsY8QmfycfycfycfycfycFjFTZuTIYrCvnX/vQpKXNaSUbhXuJXiTPABtaahiuqcb8AxbLq22vkdx9ZodHRlPgt8R+AgqHTBuguQENtpBeCkW9iKEGa3raIA6ClSXFIz1p1r/4awlFIujaRpKytFwlDgTG1XcwW0LNpvSmrtEoYMowXlAbXoWixgETwhl9dIocIkdFHgKW9YVHSoC2VVy/HOQr8sY4ruqmge5++VAFti0RKYWDRGgJasfIlkNbVoXPlKAKBUvgoAiBUu4f+kAlUFVllWlYS2oztY1LfO/RrCUtRcu0RpxlaLhqXAENrujGWhZtCA7InFAAsSoxghCdkQYJQApoiAiWvpYFT5YektncNDAEwej7zsqbT0G2KUIx2merV9gp9YlGZZzCDSwd/llqgaVWjw1FoYxQWVnpaT7TlEdYLFS9ZpLO5bUBfUkknh+V1Xglx33Bfg0Igc2qKvoYkWG55UcDFwC5vZ9SSSQ1Oga2o50AqeoAeJ9VxgliNA/zUSjRAayceIQsESJ6sCou4jyQ1STW0QGT0SjiUcRCnHRqQFrLKiDWE21OaivlixrksC61Q1YJJ0q4u7RHC3jy0faco3RcKwhtZdZWMWFEpSADo0BVfAenOutFelWtLb/4GGGGGGGKGflenvPPNgYaoAeViRqGgqzUQoV2kBW9UX2n0/GNarzjoEzKI4OIloWcMTsDzXQCjEo4lHHV0ZZ4N9hbAJUiive8YDTACPVYCptROI4FA16m7A5ge68s/JxlxnBi4lOw1JVbbY0olsdIsotIBSJTRGT71PvU+9T71PvU+9T71PvU+9T71PvU+9T71PvU+9T71PvUUKQnCkmJFJpttIEj/AIh0KBHJV1Kox3qNhOPhKC6RjXew13zoEUCecEgxMYS+6EemuMLgRwXoaHWzmWcxSnMXWkfg1KJUx1pRR3nNssYgLM4ysGjO4ykCEcM/Cf6lDqlKjzQcVDzUeaPNHmjzR5o80eaPNHmjzR5o8k+SfNHmjzR5o80eaPNHmhJtoBdVd0wlI8Ig4CF98X8mAmAWCr9neOxK6TtK/wBN0Er13OYd+IwpByIyusmDEe5LOR9ABZNBY4MQQ94tUgwoQ+XLwsNaiP0FkNC3h+TejHqFmB5y/L0ggBqtTDzdMMrJyca6A9T3PUpVfXWgExhERBEbE9AsBqtRGXpPe+6MsM7aESi+hsKuL/8AgSoaRE+CKwiU1z3ZKgFWAt/1BETfGEZE6Rj1fClxTh4kYXzMnEvZjTqkt9WvDEMMTV23PoG8lZxORldtEUjOCU0ol9rlBLidUk6qM9XEwcqRuqXK2ueiDWIh4ZX5wxhlByuY0JVTTKBbReVBCxpKykMAFjqcgaYrUTXAMG+B33/agmBQAHYK6UjnoNQsRDgpQyrZyQhGNaCjHgp1HaJvcHjNOyWINo6IZUQSKJD0BAaqB8EflC6SWe6OBIWHh5WSDqSoLyxwqDBG5YkT12IdqpZEgj05JSBzQ7s8Yl7i7+hhZZlEKXKOwGSzJKgkaCeUbIk3E4GpKBf6pn9bPRBybi8Mgr5fsSAzZBaf8pDGqMmgAcsYmp9wg90CpounFDLTI+/sLjjbMZlg8GJ3arF+qWMDDyEoXBwxMd7TUd2UqzerN6CxPTY4XwR0GWzyEVY2lz8ewZIIzRq73ilwvtTpy39k+OcS60O6QLCqRW47VtGPlsetPCh91pgTjUwqeobinRgNRH4CXrUaavlDDf8ApIDV4EZpADwLFh7Rjkursxnvc3pIfyMTE0SzPA4l4EDopSKclvSjiUcSxAAVVoDlZbX2qA2xUjT7sVEstu2EUFEULrJajDNCXKquqGBPdwImeiA4B1LRWP3SaxgSy8PfiKChuv7zoAaHa8WFwn1YPXTkZZGuawHQYcnj9DEkutpRvsKpa71VXE2xiGjoeBVfvgiBFgXMKc0cskUay78XBvYitB3ySvn7Io0RQoSyHVu6AQJ1CCYlW3FmZU8KbtvERueyzQiEg6x2ZRoecbW5rGmv3ga/7Ck7qFI3W2FiVucX0Im6Lb4JxdfA6bQFBqHO9Jk6UfW0Ti7h5XiSuXyQPA7wFl/LBLsBoG1luYj2F7ho1FB4VKOOrJai5NBGvChQjvKbchj7sW9TBWAPIiCEC4BcsvApikoi8lLKqhQaI0kaHARdB59YYKvUFGyKFLYrVyQtLMdWhjCIEqIYo2qsexAHCN/CK6aF9R6gsBEUbVWKyVWAlCCYYRMgq+WO/giPe9lDtQsdWA1UfISnb/U3qzNsw3M1QGmwpghKsM8BSnre8d3WOe6EGrW3YmiTVVzvxXvJfJ17EJPrm+wulnMs5hxK10GNNBNCg8qiIUGl2t2iHkkDHbDUVV0aIZFLOVoTGQALUL6AZQ1Y+0CMIrYFf/PMzMzMzChtDfeTKmKLf/jZmZmZibFWDD5ToxVV62YbSCiDrgCYzUTuXcjNBecZpi384Za+bG/BIbNfevw1gE9Lge4zSyq+M/G3OC8eJGtvKuVhFNK3nN+AJZz6MBAeaJRxCykREhHL5vBQUJQdR7kbW8jciJL/AKBXBZILAXRiwCVYwqAimAQkgHRQn9Nn9hP7Cf2E/sJ/YT+wn9hP7Cf2E/sJ/YT+wn9hP7Cf2E/sJ/YQbT5GDkVLFXBBkLxgzjUEoG7qBK1xaPb+yETwzQkvSB6+GuHBQKdVBJ7etfIJhATN7XtnC5FRzcAUENwAV0X4SGjIEShdWvSaHQjAlVinJpUhfY1u2j7pEl1uwDLWZyR9pyjdLzGENrLoVYQNHJINLAe42M+79U+79U+79U+79UG0H9uJ9W/5Pq3/ACfVv+T6t/yfVv8Ak+rf8n1b/k7P3dp936p936p936p936ovVHWneyAkYIGGohQqtICt6ovtPuuMPoz2yHC9QbgthLaKd0CEDhofzSNR3MFArdsT8+PYWbaCZfQ35iVEvdKwAg0GYgKoAWsROS0xqCqWrCQBUNZl+Cv7jRAOVLeGfacoXWq41m5o1GKHCCcM/ip/FT+Kn8VP4qULUZKBHkSXGG3DHyS8puam56bpzejB5dCPjaoNP7n8VP4qfxU/ip/FQA2A8gD0DppLq3bc2Z9jwlvJhHsCpE/HCzjo1DRXuCJG164F7CpCHOlP+CY0xKLs77LI+aIe3Ux8Fa5diZ7FcGwSvIrkoBCxRy2x+Mo2ZfERg0SLLFWrDhwKgReVBYs5hlecmgsIzb90USDV7tfqI8Vv51YflsDWCoEFQQZZx+rL6c686jbintvEtxOnL4OH+5dwOhXc/ei5smLq7/5i81VCtB4nNZaia9EqhTIXhOmr5wx8iPt4kNJtB5K/hCKFXwFyrShzo+CARg0AARREAC1WgDKqwZFyVt7wiSY4G7+/Gpx06nk/KbgRgUnsWGZTmtToWdA+F+EI7Ou+DhoLTAxkwXXbOC8oQVSRGRTUBry6pG5pBRGwtnoCKFP1l9pbgZVdn4DKKX5HoBRiUcSjiFMOB3xcaACriIXJ7ARbs0e5jGqyGEGKOLYKnTV5uagWjOI9yDVUHEUDef6ZgGrPvo/eC8aHtR0/TCLvkftlfUPHjx49rmJae+AW4aafQuKkgAZ1YYR+bMIURiCACkHSqkCDvUsIEsRMI9AeGJKFkgSKgboCpK17l+agKxu1sIoVk6iSrx740Aq0oZytYIxSKzV7KPUePHjx6vv0SIHiaRMhM3ofkSbE35fZCxJo7eGnf3/OBtWIjQQ43eg0OtXSaJ2YxHarYOEIJilsM/KBKrSoHGJmqe9lYnBKeEuC1feqpRQlkJWwpV2a0JBGIrnfclrQgukTPqxBFRhHw8p2gBPJf7yjeOWA4p8T6ggbhwViaqKRJRFOMFRlNHuf+5VDxuOhH+Q4bQeh94aAcFkbxqqaD1CZCDC2iuUanYuimWXFgm8DQhkDsQcGNGzKq2LVtYNb9pxBdvUH3Fyxg6cZPiZXuxu5SC3HfAyZrAw/9IJggUoc+VHTxFNeaoaIoNFTKHpdwvu8a+BA3CACgCKgGJGF29mH/P6GjyJCsAynuNHu3BgzgaI5HqJRmWcyznqAbCKmMinwyi7HmI2LMHMRYcKKRNxJps7ihKKrJ2MrBBDRpGIdtxbWlmMNErVdtJwOGONQg15VuTPmVZ6HkgZiimZyjS0RvAQsUeWMsgIISIxMnanVWcDPIQxSJyFJWhhvD5ICCA5780huvF+MJMLt3IzQ8ELS17zf7cDCK0Z3rai4GQcNlPxSB+pkmqu/DGpv2hnv2YQrIjRUEyFUcg/69DTuv0UUjH0dT+JLmlS+Aa5urV3k/SUcRCnHr7rhA4WhO41APREpHIykAAqghypFwQ5R8wdPWBO+xYVWdoU8t0AIF4ZK8gUEP+yQ0EQ42wcjK9EU2X/B0SNXFUwqPEuDnzQChLgMVBY+SYlle6EdR1HaTEthPCkUSIKZMw+IQsgo2TGVtYBiClEbtQt7XLWGsXPD2IEtNoX5gquovIoiwNiWPf7BRkiYPIyMMKBCofIWkCCtEW7DYiKBHkemWi3mYr1apwo2TIziV/s9PR0fWgDMekUb/VBYcyp1FAaMNoREAFitmKIQNHc26yF5SEmVwGQP/aR2bQ/fwl+1bXhn+kHmpc1xGgu3TX/QZaBgIUHsqy2+KAVSBq4mlILTfIJEQyd0sgBax0TJFgoSESKVRFeLjwxFUUxwxuj4e0gl8NSx20F6XIibyvDK2z2Y0wRBZVs8qAIkFqstPZLGIosgDz3MsMdvA08CYWT8S0ivlL3FyeV0E3BERHRGUtd+3MhI7D20RZzFKc+ijiUcRCnHS+mtA13SUAukjJwa5wKFI9kiQjEUpE2SImQIjSJkSNL1AtZWaZZqaT3QEgrotuMu3KBYQeTySZrBu+yz9wyrFhFg8LZZRIMzMNVhBIcmoxROmzo+GVhixB5mucJBKDe4BUyYqDslSylFKq8K9zklDvH5/KIs5LVSe5KGRNs3uiRFHj/ssbiw37MJSj+GGMzXXagwkCNYs+KDk0V2SWdBv2dnuQkVhKbneX+mE3pfHqAoxKOJRx1dHoO3wyjY8ReLeDd+opUEkplUw9nZJ4M6D3iBtUVqLJzJR/SS4FQhEcwqTRPZiWoiFaQXh8rE5qAooAzASjAl9YRRdDMcUP0IuwQQhAVKmqa7LRdDyzL0U4yvdl3EkYV7zmFddxLvyIkKsSw5vYcCYMcX/cG0PAxkgIgKmbrAWPqV2lAEY27lC+D9prGdz2OIAZToePBa7ECnHXlNV7vUGjrZzLOYpTmJA/jwMV3M5TxbS3MczqWKy8ERA6g5fCNRYRpHCMEFxWWxZohocaB0lraDRgaDBQNRA0PEl4OwmCs7wHblmcLq+qhgh9phHV4LKoTwuGeynFxditxF8C1YVbxRdt9DuwhmsMh/1NCBhVUKwYe9WCmoR9BrkVMEV91lNewREALJKixajsqbuAFuAbhexNnfmMAgEDkRwjDS/IdVv2GBTmUGw+1AFUEDK6gj0D5v5Q7vVeA8LWqGQN4JuFAjFLu8tQS6ZZz6EOgKkF3kKuZKaZ3Bst6LROxiY1VUQYaYhTJzG7QynIGLClyP5IwS6KU8OsjBkgGXwQQuGcFZwEEwhCpwS8GcASKZ8Ag+BIe4rl+TBaUzywDQIhT1s/Loqqr4S1n6tXk4g1t9d8whDbAsTIkOKCkZkL+JrintuP8AEggo0fEdkBjJY0Y+A0JN2hjPiQf6JqdAFGJRxNUe31xyzOSd9WgATWyX5J6VhkKRLGbmXu0waYCgOrlXGVuRK68AB83K5jOCgNAhafhJy8i0R/LtRVj51YXEIyGk0HoAO0d+12PMBhiGUgBgAOjo+jM9uB/Zg5HaFggmZg1znPXQACdy4ravJALX8B6DQ6AUIIkvxngeoSjMs5ilOfQYEWcxSnMcJoA9yKN4IlpJSosYVafjJSnPoEozLOYpTn0D6HnkRDr+LADr2msglqCvDL1EozLOYpTn0CUZlnMUpz6KOJRxEKcegCjEo4iFOPQCjE1tE52DwVdAMALSW2HYZT//APY9AKMSjiIU49AFGJRxEKcSuEue26xgkCJEgizUBVYiFtGrSjiIU49AFGJRxEKcegCjEo4lHHV0fQaHR0fQaHQRXvcg2IOA6mh0dH0Gh0dHoNi+2zuk0koAAAYOjo+g0Ojo+g0PS6PoNDo6PoNDo6PoNDo6PoNDo6PoNDo6PoNDo6PoNDr/AP/EAC8RAAICAgEEAQMCBQUBAAAAAAIDAQQABREGEhMUIRAgMRUyIiMwQEEHFiUzNVH/2gAIAQIBAQgA/v4s+S1NZMjMfnddQ+pJJqp2e6l42A1l4NlVFs8fEz/SIoEZIl9S2r2xKrT0m5Xt0tnIjnF10kPyqCpF3Fs6dfwpu0zWQdsy4bev2B2lJeyxEFLaFGwvsbeQKLVlSemnSplwjafhqH3mh6jWdgiu68AbFayu0uDAR7uMU8WMcrLdtNNMtcPWNGH+NwkJiJDjl+ZLl5f1UqeS3dLas6QOeQVoiQloRU7ClRAAgzx05GEbSsbf/OrclZUPdla9Xsn2hY7798qOPFVKxAnUpBRKSn122mCbm9Q6b9StaxqhNemeL9abKz68lZnYrkyp62k2t5Wu6pS5lWuYVWqpXWsfqUtr6ygp30IRLjnKVdb4dduxZbZ/jYE9nMhWELNlQYSpvPr1K282FXXPemOkKo7srdiEJZX2G2S7qHXWTaN2trN5VvqjyNeKw74Z0PsnbWThiq1qe11p1dtmgitgbQDOYzyqOIEl66gpvmD7W2YuxRQFeYKWGxivgZebVqCxC37L1qT4p3KBbWtNkendQvR6erUh173tledF++mhWKw6v1ZotvamoNUw5lRRxIzJWGpAVzc11bl53DsbVlkpGrwJ/uXFmSgFjz2x3fYi8+25g10OJRiY1WESLqxSDW0Zel+0isiXHvbdpq6sH0jTMJrOf1Pu0VaraqK9mUlMjtlM2oIAv9m2k3VMVtG6+ali4SNc00oYKNTWUUEWwvV3pdVEVeKOFyap+D1EG673R9tOr6UuECKIiSJ21rqngB2d3mZRZZZuIch8BY9ZFcn7LZWUIrkuqI5ChzxDhJGcdTAhKJGzdGIGDsXWAQTFQo/Dqcc8y1RjHzVs0NXq12WUNxU2MB4/sIhAZIr1+QsrjE8m7vysMSAxnYOdg5ARGEQh+ZaX+PIeQ7/7EwUcx2DnYOdg5biOMqUjezjOpte21UR4entXfm9Tcz7L2yVcq/yNTVVa7eX01IqH21yERjlhhMxx3BncGdwZ3BncGdwZ3BncGdwYswgfm1MFH8NNE1qyVTgMFkTI/Xjn4y2hSljKdUkFIiRY2H0yZDHMgyiPI2I5zztzztzzNzztzztyGtnJa2M87c87c87cQwyKe46m4rRJ16G5lrfXt7JTQArVZnUfUuj2U+eu8LVevYXkfmMsScWDg9Q8TUQZd2Vp/W6qJH/2lhczPGSOSPHOQPE52zOTHGBzHOcccznbnZOSOVuO8uSu76n3NsbdSNjrPfr6i17+srON/T698g65KUtKlKXm06kDX3TrRfZLYVYSpr0SDRKKl/ZVbxs+Gnnfnfnd8zOd+CXM8YU8zkFxknMxnf8A4wS+ckp/GVv3lgkYHBqf7464KFOsoNPq1LLSpJdc2l9L2kp33i9ljXofWBEWk3EeMLFaB9hRTFWG/wAUFTgfz6oZ6oZ6oZ6o56oZ6oZ6oZ6oZ6o4NKCjmPENeecbKq92lJgve6+IQhWvv3Xi7YiQcyA5MwMTMrYto9y7FhNVJuc6/b2MzM1ysnunBNb9sYYd0xOeMs8ZYQGP47izuLOSyFnP58ZZ45wB7Y4y5+3ABUrKhdGpfrxA12p2zAPnV17Far22M/1JvWwKhSDpbbOTt9JXq76+LbTBKrtrbfI3GAsn1NipFgIAc9sM9sMGyJTxAlBfiREvz4gyIiPwTIHPaCM9oM9sMv3a6V97b/UWxrIiHaCbZ65Z2frt9LQ3dcUXNL0nqdI6Xpsk2zRtMilsE1kyDdXsrabDBSLCriXj2N3cIALKRvbBaDN3TtTaXKzG7A61xGe1I/B+4OHbntKctbUAjNux1VOs7J6ktn1BWpzZjZykiHZ2tk55rvaTYewsqzukrhoa7VH9kfExlf8A4/aW6h7XahTsElSrtmzXnsXzVr7NkVYsa4XQ2wjZrKr6qyMlrI8mImOJ3i+NXaJWr9pNZoOTuQ75Xa3Vh11yXRsBHX9Uw9k7ahYogYdVU6DKUWkIedZy3BpZhmx071fb1XqGugdjUYKtwAlCtPszZCM2cs1h6yExcuWlrrKrOjV69a7Gkv8A6jrKz5+nUvVNDWT6MP2NOtRTYYDlGMA+ijbKYE0OtNO4hhmaLZSps1GlEGJCVuixFtleOiaJenWsM+zb+x+nWPX6XbbPYGIbfpFFsysUTubPWWG1W/r75jtKvOyuRxXpdJlJQ3ZCIgIgGc5Z6N0Vu+d1sgBB45LTasi7pWdGt/JXcpqurgD3nQ1sGG6nrU2ygUW56TO+dc21q6aiFITsptRRter02zaMB83PrERHPGbTpXTbeyNq0lS6yVJTdtxWdUJljca8AZIVDJlZBl9gjBTxO7qqmkLh07TZUmCzmf6j0KsrlbF6RAlEnEREREfbcqWbvaDEIXXUKl/33//EADkRAAICAQIDBgQEBAUFAAAAAAECAxEAEiEEMVETIkFhcaEQIDKRQlJigSMzscEFFDBA4XJzgpLR/9oACAECAQk/AP8AfoHcC2JNAZX7ZRcfU53APQZxUmofnNqR0I6YgSQd2RB4N5eRzqR9jX+kaAFk5/l4Y1Rm1zgsWr0IxAk0TaXUG1PRlPQ/DiFDZDFxEJ+oFQc/kSbMv5WwbMtg5Gzq7E7CxR5g5AYl8FPMk5wcLr5oPY+GMWjRjpPPbCRH2Sk+Z1UAM2cg7A/iffbJJBE9ESKdXPJxPAa98PqOmHmayg8RphjUvIdScgeNLrXq1fcYQVIBBHIg/A1rRl+4rIGDA9MBVZFCqMkCIRq6ms4B5VXnI76F++wyFopVXV2YfWrp4lTn8t+GMyf9SdM5mQ16DLNAk0OmFg1XpYUcLLw0MavxBU0XZ/pT0oWc4ftHeQt2dkBE1EBVArc5wzyTXs1bDoABsKzuoOS5/iEbXqUJpI0ONtANVgK7NpDc9+Xvn8ucEfY1jKQ47ynYg8rF4bkk5i7wEqjnUB55wA4pXQqqHwJwVIkKhl6eX7fFQa5WPgxEEVd3xc+CjItEV1GvaLFGg6CxucbuxntANjpc7AArYIbx8s2j0zg/pWjm6RLRf+rYbJlcf+KtWAJGilFY/mOIVkEqE+hXYjyyNpCqgOqC2Fbhh1w9hONnR+6Ceqk4QeVepzioxwzzau3JOsB2PMfmzinhdD34mfb1GrN1jYCxy3PwUKt7XzzSQ+1HcHOEjEng1WR8y6USMaxyBZbxSyR669FF0Olk4yqhNCJDpQEqG7xN1d4yvNKoRuy3SKIcwD4k1nCHh4FUmSU7u1eeC+IlkoL4CzQHoM5qmqQ9WO5zlYVD+ldsBKggUvMlj4XnDVxLErE08Yp26WDiLFI0wBQCttBF/fFJUrbAc9J5keatkKTofomUiyPMZGIolsop/r+2MUiU7vyLenQYQDgZ75VnOt/l4XXGnNronBn1N3gOo5EYxeRCFmj+u1HI0c4uHh4xQICqos5OzRmXSy8gbUkcsj/hmc6L8cnRuIk7pCmyg8byMt3arFaIRvr2Gq841DEJg1sCrqur3IwBuyXVSmmzipIwyhwpO6lxZGXI36sLUaBdeWxw2MOlse44lJNdTsB81NFI2oA7EYQBzJOBpG8K2GL2diiQx/4yNGSQENg1pFp0ljbd3lZxkiiiFL2Y0nB9/gPgoo8xzBwIa8TgUBhRI2OJ7jAVbAH8/HFMKvuwPeZmxZYy6lkEqadajmV5g/KaAFk4IpkQo5QMShBptLFaN+BxaG58hg/CMGDB8ABjYMOLgwDOoxWEd95vLoMiLLFYKLzAPTHl7Dhg2gOTSgitI+Vm7N9ShgaJ8LFcsldouzIR1IfWQNrJPInmcW37u/7jljAd0Yww/IcPxOOOeb7jljaio3PmTfwa6NH5WjVBIyrED3x43XTFApQAOQF74pAJ9eTVjbA4/sMb2GN7DG9hjewxvYY3sMb2GN7DG9hjeww2AMn7Tomv+zZF2U11fgT0N8scpKq0xHivoemca/ERk6gJN0dP7Zsk0aSLfRxY+MVKtBTd6tt/Sjh3FHHYcPBG2lPAlotWo51/1Py5wUU0AJJ7I98LhGuOPWjdVHNTg3dCr+o2OSiMwTowkqyFNhgPXF0pGiog6KooD4RLSRl2Zye83MItA7nrkdrOFkUMdOzHvfbGKnmpI5jl+4zhynGRIyF0buupBFMD0vbOvwHwHyj4/lziOIIOtg0khbUqfU2nkFz/AA9isybShgVCybn054wJjT7sd85ytf7D461fa9J51g0BB/DI/Dmto4+7HuSgBN0vTCRpLEUT0I3688HPfni++D3we+D3wH74PfB74PfB74PfF98FeHXBXDT8IeHB8AeYB9RiRcTAu0bMdLqvQ7jJAqL9ECZ+CgQOQ8vgaAx1deqmxj6UUbn+w88Jh4fwjU0WH6jktRRAns+qkbHOg/phrHx8JOE4ThONWPj4c6jEDJzjY8iM4tWjHJZBuMnjGxpV2vyvCO0ZixUHUFsAUDQ9fg5Xh3jMj1sHa6o+mcKsIZhBxJRie3Dn63HVcP8AA4TmB+KTIo2hT6o1+sL+YdaxtSqCHI8Y22v9sYcufgR1GMuMuMD8Bl4Pgy464y5KqJqALMaFnYDIoeIh1rU4FNGL5OB4HqMNs5tD4FSNiPkjJCm0dTToT0OCWWaiA8pBKg/lAAwW3bB3rInZg1rp0iv3qxnDSSwu19mLJW/EEDFMahTKYyAxUeJAB9s41ZeGfk6IBXkRk3FMwXfRGmlT4WbO2Bo1NGEstM1+NdMXtV6jngZT0P8AzhP2wHSosk7AeuW1jYDZTg7OSSEtKP1bdc0pDo7IqB9T1eo4TGCuzAAkeeTvI0ZIonb1Aw6nRdr/ABp0PpjExhTLwxPgv4k+banYLnBwllAt2QHmL2zjCTpXUY1EaozckG1ljkjSu7Dho2Jsu9UxH7nAJOGZgk0fkwsMM1SRKp7GeMHUUbkrkdMADsoLAcgSPgLxArAKbUUa1DOG1QcTBJLrO5pV2GLDOiuSgKiNkrprpdvXOFkSBVpWNEHfqtjB3CUkQ+oGOpV1xf4q1r9M5ob9eozcFzR/RJGfmFyxD+Ko5lR444TiVGkhuTVkTqhYEk/R65FqigW1LDYvfM5GSTHoehZcBtY+2OO0FnSDdXvWIVatDX1Tax8WEvEuyrLHRKpGw31HARFLGpRALsMtgYpKgUrr9ajp+oeRyQtHKa7RN49vzA8iPPO/LAt6gK1of/mOQkh7l+D/APOC1IIIPiDgJUG1bqp5YP5QZUPnZX+nyuUfuguAWKqWAZgB0GStJChZWeiAyjk1HJBw853K/gY/2wo7xHSyhgTnCEg9RecFOAfyRBF/9yaGEaRv2CtqJ/7j/wBhihVUABQKAA+MMpd3LvGHqNmO5JGIpSq0kbV0rOCS/Uj2Bx4Y9/pBAzZh9LdMi1oTZVPD0yKQSrsCVPe9fPD2KoaY/iK9AMTTHGtKM/naO5Qs5rMYCBNZYnUBRNvvv8gAs2fhC4loBmjfTrA/NiBI41Coo5ADL7MsxJ8xVY5dnBFeucyvyixR265GEKt4YbCOVU+XwJ/1FsH7g5KzqPw0BgoD5SR5jOL/AId2e7vgpR/v/wD/xAAsEQACAwEAAQMDBAAHAQAAAAADBAECBQYAERIUBxMVEBYgISIjJDAzNEBB/9oACAEDAQEIAP8A387wTe2jD59bKjMJH2sPm4bih3Aiy870gVlOc2R+0/ScsbE9GA+6P9mlLlvQdHuaVyVRWa1scmZ8YsBFJiUHCnLcyZatS9TweuqpY4Od2XJcaxtWY9J84npMdzASQP0FueZdQyMkMVoh75n7fvvWooiv3LeZdK6Csrsh0spwb6eSuLmOvYPn328R3Bduq1k4MO0TO31PKscycHrj47u47VRR7gjKjt9i1bUval/M9qEX0G5qNDWENpb6guJVhLMXklrxegCmoG9aH5vrmMowjKfUfEBn9Nz+khefXRH6n57RWzS6LXKNgJp2pHrLi4wRWlTsFjwKC4v7qmUaShZHqRQukB7OeOu59Ss0uV2y6e3l6wxcR2mTmZ1c3V7vrFeiKmuj9NjhqfVV86PLdbtWAaZBl0G7j/QZjB90C9POg2HBsKZWYCb8SysNcIB9Pro2V+obVUeU5kgNDQBkrNvt7e+X8RhLMG6a+HCeitze4o8Ejqo6hrovLjERSse47upa01gZIKKpq2W0drDiT5mFna6ON1urteMcGyqCtplB9YlzAb6HceDIWf48Ny9WOnmGdvcCDT22kxbu05kax82QubJsyJjm7mYpo7ja99AV2J0WqNN1CBTNZ5Dnub+0LWDr2GuULZwSKXtfMsqKHELe8Z6wHHz9Fkzded7TfgGSDngLZFFfZDOJbdXBWGGy41RXabJI5ISRfwB9Li2zaFZx9I/L7VyEPME0YN5V+MnbqoSnNYT6dGVngiFIr012LhxNMIvpXwuhs6iOm/0WUDYWEAqPL56RL3pbBb+Pf7OQ51PNNhU8N3iN7s1Z1u/2dAVgBwuI1qXT0Wkw5i3tHL+pTGn0863eYczppf8AhP8AfjfframLRPSKUzjJS3S5p9ua+6eJwA1pXXBg8ssQRBM83yLd7XJm8hxWI+5phe6I5ZtEX0SzPrHzz/16h1CjmLeJdBa3+UYmDyZr2J4picqoyBipN1QvrMvKlIIjyizklvWIfzNjT22UvHsthGb+7+Ax3Leg6ZWOtnwG5lPt1aBSN0xatMTEtG8+UbyzJbRMSEBmJj2jzRV/5JSVmPTwubH9yK9SAt7bw0aPTz5RvPlH85q97EtFndDG5dGxFOF1lKn1lnurHkZWa7Wv6xEzMRGLiECyarOi2gsAEl5vVorrIQfa1M05zSJDSzxjJF/yqHn5VDz8sj5+WR8/LI+flkfPyyHn5VDyNXP/APr+gjc0TTntrIWLEnfYq24wenh1DqWrU36xM1mJhE7DY5aZ0q3e0V0B7+YTGedzyATWuAV7l5WoV7Fv8BTz4CnkZ61pitfgKefAU8RwRv3LA28MSha0n4CnnwFPPgKeaCwQgiR/ubgtEAwvbfOrCFLuRyLqbZa4Gtr8wvnsGTKQdhEIO3k/3E+BpdxNwQunUsJmhvCriHzpjRjBqwbKDbdYdZ1389Y2T7KxYbuSNWNP7ePlyrpo3ZWzzsLAPVkF1WWF74Jzho/TyqXwE9dwlsdmGJHS/MPwwMVD51gp/Lpq+vx6eg87l9CKBUwTtY+1+La21ZytlkYPqG9C37ddi9rXva9vE+XOxnKu2y4MsIitjoICoBCm1jEzMd37aBbgomYZ+kORihwzvj9oqUjb/wBRolv+5SyxZm2DpS42mjO2cR9R2Ro7BE0jpWf3WH1bKzHQWle69sZ6WtGgvGt0jK9Vx6v/AF6eXFS4ZEcUZl9gupoVGfrOkrQP1L0hNbKyIP0x+y08hKqdFNxxfSM/dfRX1ViQnt5bWjkVTAbO3EP8ogVNs8TI/wAb0Hn43oPPxvQeRndDExMfjOg8/G9B5+N6Dz8b0Hn43oPCr7ILey48DoNWv2xhGybO0x0KbmNe1mmQdHk86semEcTMVGyf9Jras+lgAKwWghCXWQ9Pbhlr7suZ3/8AsMeLNwvS9Z+eHz54fAMqFn0t9oXn2heSMNYmZI4rS3pT54fIfDExMNHhgkXjl49xojzRgrZhdNg/nOP1Ii+otp8GiYdg72l+V0SM/pgAHahzeOpT8Zy5chK1VxRRrKUFAxxiPznOVAzq4xmTWKL9uM+TzjPhsEwaWvYqxA+vuodgMf4Z0WZj08vcxZiSASIb0nyOdYtET5+3WfP24z5kJfjIgzLnMG5d2XluvuhfSDCf6qOHSJNxOajTg/t2WmgHxD8cUMckXo8mAo6SUDrwKUqFXWaLawbzrPWJWo0qaVi/euxmJm9Z8vzXumbCjmD+v9FyEMuljaOv9TuWwqTGT0Pf9iKM4o+H3dZlnJrul1stoxFgPS38gg2+d0oeATPa6nGrlt2gf8J8a/1SazNUE7HXoUt11xGj3EvLJc4clgLsj9gyp2g8nb0iJkp6h1rzEfdEVZn+6/VerIMGDK5UOAWPBw7lPuWG30DJ37jPGylC2o3IM3J0TN0ON5LTvJGDKskTZAwPuaCYyhN0/jhPUisoMBJfPmwyXdSpWS+IRV8WhN/jiCS57txDzl7hMzSFq1sLW9DeyqBPvRWfOnEDSQvnMaTauUK/yKHFesDPnr7ASUnNSNbVwUyW5rQoueVC2pW9bUtpJ2zXDAtvakWws5L+OMQItFchenYE3yhC6KHQXFWoXYWTcHUoYyLxPrWVa/dGO74tVEJpWE0cRLErRsMX98z0jIqTReu1oQOaTetSVtUlsPItb3ytzOtRODK52izlswcHzEG4+6rndZSBVC70+4izIZAQly2m98ASBthEb/WZedmUUqH9bXvf2+7xfSbWFIqXmb2ta30qVWK7rmtm8stnabj9OlXWU6DYAt/DmhDvqjITmdVrWRoyz9SUVUuiiwPPT+EREf7GRrvYjo3UnPqnsHWkQLWte1r3/gk4zntrtrC+q3sW/wAerqObL53nP/d//8QAPxEAAgECBAIHBQUFCAMAAAAAAQIDABEEEiExQVEFEzJhcYGSICJCkdEQFGKhogYjUnLBMDNAU4KxsuEVk9L/2gAIAQMBCT8A/wAfjFwmGe/V3TOzgcbXFhWMjxeHZmVJ4wQCV3Ug7Gr5G1SIaFhzY1hoVI4LGD8yd6wEIc6ZgoRwe5lsadpsEz5Q57UZ5P8AWiP7FSzuwVVG5J0AozzzsQGERAVSeWhvRLQTrdGIsQRurU6Lc9p2CKPEmv2qgGKP8EiZB5NWMdoQLpisMzAL/OgO1DLjYRnR73EqUbjWx5gG1YyGDEYWIQvFKwUsF0DLfcEUsTxRzvicU8ZzJcCwUHj30gzSEgHkKcNY871oAKjWRAf3iuAylSb2INYPCPjsK7o+DlURXKGxtofI10U/RfSqBtBaxKbil70cbOvMVLLFh8TOYITFHnZmXcnUWAqYTYecHqpbZTdd1YUozWzO7GyIo4tXSsc0qjsNH1YPcGzGlKspIYHcEfYmcYfERSleYjYNaiJoJNVddR4HkeYqRXlicyzZfgNrBD30nvqbEyjKgPgDmNdLOkj7RwRR38ldJWNdINicG0xhxUMyBWVjoA6gIBfbsg0mVJcRCYrbGDFUNF6PI8C0oI87KaWOCFUDBZG99wdrKL0SGaBwAR3g1cRQG81tyX2WlywxS5MqABmI1Op2Aqa+uhc3I+datI3a8KhOG6Uh6QEZZXBSdGP96TsDwanWVs8JnaI3UsoOfUclrXF9FFXbwZc1vMVmiWF3aGYIXWznMQQoJBuaVvuuGLN1jDKXZtNAdQBRAxEywvGOLLHmzAeqpzFZ7mmDKZCAw2a2hPn9szpm7WVit/G32IPvmI0DfBAg3NYub/ymJwomlKQGeZkkO8lwwVWttXRqxYnFKMPijGjQxYhb++zRtrGI0vesT95xEMxhSUixlEWLVQbd4BodXnKhISRmCoCEj0+I3JbkTUt3fA4aeReWeMFRUJkk+8qAo0zIurjz2p+twuJCsRxAtseTLUwHWP8AeIc2hZX7QHeprEqCPgXUmlsArdWu+iC5NRmQxpI5se2IkWRrH+Vwa6Bw/SGHxK5sNjosPaTK3wydSBqtApLjYGkKP2vcVtSOG+g+yV5pMt2EYAUdwoSq+HObMpKuluII5V0nNJGRZhcDMO8ixPtN1gnxTvc6kQgB2H+q1qMa9LT45cNFIUVzDhYVIMiBgRmbIbEg2qRFT3BjJigbEyRSyvEtrasAYyStwKw8kXR/RiF4Un0eWa5fO4GwzMWPMmsX96MVzFFbJCpHIfEaJM0jcTRzQwgRR/i5t5mrLLKkj4lCLhmezAGsI6Si7pJG+qFRuKiSaAMOslT3XCcyu1BsRgEwEsonFj7xxCSFTbki2qZEljnCwSv2OuQERq/4J4iB4iuksR0ViUN8T0dOjGNG/A1iLVjmxuNkyDFzD5ldOLGoutxL7RAZgv1NQ3hAsobSQCmiw2T+8Z/dv5caBEZY5Adwt9PZ6UEOLdAwiKXRCfhY3rDK7xM+HnjO9g1mynmCKF1m64XPwtcMnmRmFM0EMwd8PMD1eshu8ZK6MpOpVq/aJziEBLwYjPG9/wAKwkfpBpTcuVLFmcm45uSalyz9Sz6bqh4+dYCaPoqG0okkQqsxGwS/aFYxMNklDhmAPAi1iVrpyNmZSuoX/wCqxEOI9wgfDmP5ikeKKVrFZBniPgRcV+zeEmdgI3fILOIzpcGsmEhIsRFoSKaNLnP1LE9bZhudLBqwohlcdpu23mak66+0S6t/1USwidwFjHJTmuT7XRksmJTKc8coRHZNmPEVd5ppGdrDdnNzYUViBI0OrfIVjGnl7QUILDyIc1isUrIRl+nYqfEi757KSBf01Ficdip7XXFNnRbbZVKqKlNuUZyjTm3Gso8Bf8zTH5L9KtccRdD5EXq0qnQo9s3kdmp54s2uRSbD5qalndonDhZLspI2uAorFsDzCH6Vj3xQTWRZNWAHLQbcqDFmNso1uTQDyQAX+BIkYBtd7HWpIpQjBXaJiwUngbgH2VuzGwFPEXcqAxNs7EXyLe1WGpsPBSacj9897EjRTYDSpW9TfWpW9TfWpCRyLMR/vQuBpmOwpix+QqL8zUnk1LbW9jsalb1N9alb1N9alb1N9abNeJr9+VgBTxS48paJcwd8x4tbZRU4E+NZJFlka2dlLXBJ4nNTxnF4ywEYIL7g5mHAD2BcmhaQDKQN05+dBZepHWwuVWUq6qVVhfjra4rFmLBxCXWaVn3RrZ3e5OprGwuDK5BVgd2rGRKS2l2FdIYb1V0hhvVXSOG9VdI4b1V0jhvVXSOG9VdI4b1V0hhvVXSGG9VYqMjINQ1dJQRjI495wN3BpQqu2g7gLX+yEx5lDLyZTsykaEd49gkEagipFaZrKbALa2ugHC5plQSyi3u3ta6iwGvPQVMkrwlQXTY3Aao7kqCTc11YlWAYhoMzZ1jJtc1F+o1F+o1ASSbAAsSSai/Uai/UajREiQvLI7sERRxNRrKGhWZXjLkGNtm1sRUX6jUX6jUX6jSZSWtueRr9njHJkCmURKv64zmqR5cKRmKMQzKOYZe0KQS4HFPaAntQTHYoeGaoVBAvFKgsWU7NW6MVPiDb7ZpMJ1hJjmhKlkza3XOGGnfS+4xK+d70oMkhUs3hIBauzJJCp8CQDUKnrXgRnAOYjKpCluC3rFLIBi1wjkIQBIR8J+ICsWZGwboJB1eUWdsosb789KlUSrG2J6gKSVUAkZjsDTKFkxaYVQdy7i9EFopGQkbHKbV0dLicJKqicxrcpluQRwO+1Y/rExESGPEMNcjIVAIHjoBTo0YhjmacnIixuLhmvtTK8bo7CcA5LpwJ4X4ViYZohN1LFM2j5c3xAXFb5/6GukZ8PiWACiYXRmoEJLIInTcB27LLRy9W6yREfDcBx8qj1xGGnuvoZflejdmJJPefs6wnEvZEQD3UvbO16AefDOsMgvbQbN5rrXRr9RiZJmbqkAjRjeVnc3FizbHnWLz4fNGcjp7wJcbEGjZ48jqe9dRWEihcypLLYlutMYygHkAK6LiVI8R94Rc7H96b3Zue+lYNHTFyRyGMsbK0RuuvEcxWBhM0sYinbMffQC1h/DWCiEUUhlg94/usqW/1E1GqqJnGYEkuQdSah6yCR8/uyNEwOgPvLwNqhSOENGY0UmyLGCAvfWBjMckCRTWYhnyKFUg8LWqJY4UwU0MUIJI2zG/MmsDhoYBchFQGzMLZhwvY0fj/AKGsHhFYdWjRwwqhR5ewmcal+JGwrpZA+GlsYMhDZofdW2+YaUhH3mVR/JEotc+AFEdXgIchtsHfUjyAH2wwzxpcxdaGulze2hFxTdY07kzrsHub6crcKxmSVo2C3ALxMRo2Rt7HyNSdfimEfERZmQ6k7DUC9QIuQldGVrZdOBqJCAbbqKgj9SfWoI/Un1qCP1J9ahQHmHT61BH6k+tQR+pPrUEfqT61BH6k+tQp60+tRoDa+6msMjaFu2i7e7xNXGPweP8AvTr8RAurek1JPgsU+sqIM0bNxZbA1Az4yVSpxUo0Qcxfc1mviCzqzn3pNdX8CePH7VIPfS5nagJZxvIRop/CKLs0xkuxJIDBWJBr/Ok/5CoswY33rBr+X0rBr+X0qNEbkQKiT5Cok+QqNABxIFQK/fYAVg1/L6VhF+Y+lLl90C171xjf/mKH73QYzDAZikgFmOX4lav2dlw+JPalwL2RjzKsRauhsVM2Ye/ibOq9+W5/2p8+mUPlyXAJtYcAAbfYAZA2UdwtUhawLpf4SOAoAT4rifhjqWRZX7MjdgtyPImhlUScfhJGU0C8bsXBQj4tSCDuKgl/KoJv01FIo5sAR52oEDnwPnTsB8xRUd9qcnkWNhQIUjc6fIbmoJte4CsPL+moJfktSLFe0SZ2Gpdr3JrHzfcXBR5UAZoi2xkXZlrEJMRAvXyIFsZCTxUa6eww10ZTqDWVU4qo3ogDqSieItUgUZcrXzG/le1TLHIq2znQG3MVj2K5xErIxCFjr8Y35m1TSxzLujEEnvBtWNjAJ0zsbsO7QViD1JS3VSL2jwI5Uhgbmuq00Ld4JQ/ppF/9rVj8LhEUZmd2A08XtWHk6SxVjllYFIfUwBP+kV0q2GeeIvJFGiBVbTQBgaxrsJ4byg2WxZM6HQViGiJBVWDXYHnUzySRkj3mJHiO41Z3VCFza549rHwoHq73T+Q8PI+1rnQMfHjWLmyteyK5A0NtawwAubZ2LswXdjwCilCJGpnZQLBVvcUxScAtE/IqdQaKo9wZYnIsHXioPOscCXAYAqeNRq6n4kNBW7iNanliIYKcjstwTWEzwYuCWYyHViFXQGlhxCI5MYKiNo7cs9l08QawsiQLGVVzZgeZutxWkZWJ4CP4So1HmKDZSbhqj0iADHmv/VdqNg3iOI861GZSp/DIL+0bLIc0LHmfh86QmEm4I3U1MjEDQDteFqe0kzWYDcJbQCmCgPnFzYKSuU/OgchsL2te2l6ys8SKrjciw0v41oL0SG5il6yS4OnAEWN/EGtFBMYRVvcjSwpSVAssi9tBy/EO41KWjlNutTWPTfODsR304fF4GNYZ7CxdQO1RGSY3jY8H5edKCrAhgeINXsDdCeKnY0byMxY9yIxA9mFZQuYqjbM9jlBv31EEnHViBW7QkJGi+W9IZYxoHHbA7+dSKQwuPhPyNBxbYip0aVjZELmRyeSoupro9yY1JklujGMc+rQkr4tUhLP2765r86iIbu1H9KUKbWDkbeA11qUMf8xhd6UOrbhhcHxvWAjv4sB8ga6BxK4a2YNHA1iOego67Oh2YcjUgiY6th5CFKn8BOhFMElUWEraBh38jUwmnS4OTVcp5tTXNOq4ZmYMX0W+U5Q3cWqeJ8U7yMyxhRaPhcLt3ewxawsLm9h9jKU4Bhe3hRuzG5NBTPFFEsXcrlsxFPIXnvdWOgvQAhTEuFA2XiQPA+zhxP1EckywnaRkFwP61hTA5YjLShTiMOk0ij+Msyk+dv7aUJKoKkEXV1O6sOVYHD4eUixmDF/NVNMWZiSzE3JJ3J9mTJNC2ZG+vca6EvibcJrR39N6cNLIdhoqqNlUch/j/wD/2Q==;imageBorder=default;strokeWidth=3;" parent="2" vertex="1">
                    <mxGeometry x="790" y="127.5" width="270" height="270" as="geometry"/>
                </mxCell>
                <mxCell id="29" value="Gummy Bears" style="whiteSpace=wrap;html=1;align=left;" parent="2" vertex="1">
                    <mxGeometry x="50" y="350" width="250" height="50" as="geometry"/>
                </mxCell>
                <mxCell id="31" value="" style="shape=singleArrow;whiteSpace=wrap;html=1;arrowWidth=0.6267440795898438;arrowSize=0.39652328491210936;rotation=0;direction=south;" parent="2" vertex="1">
                    <mxGeometry x="260" y="365" width="20" height="20" as="geometry"/>
                </mxCell>
                <mxCell id="32" value="Gummy Worms" style="whiteSpace=wrap;html=1;align=left;" parent="2" vertex="1">
                    <mxGeometry x="50" y="400" width="250" height="50" as="geometry"/>
                </mxCell>
                <mxCell id="33" value="Lollipop" style="whiteSpace=wrap;html=1;align=left;" parent="2" vertex="1">
                    <mxGeometry x="50" y="450" width="250" height="50" as="geometry"/>
                </mxCell>
                <mxCell id="34" value="Candy Cane" style="whiteSpace=wrap;html=1;align=left;" parent="2" vertex="1">
                    <mxGeometry x="50" y="500" width="250" height="50" as="geometry"/>
                </mxCell>
            </root>
        </mxGraphModel>
    </diagram>
</mxfile>